<svg width="227" height="622" viewBox="0 0 227 622" fill="none" xmlns="http://www.w3.org/2000/svg">
<path d="M48.498 0.141926C54.142 3.12993 61.114 5.28793 69.414 6.61593C77.88 8.10993 88.587 8.85693 101.535 8.85693L168.765 8.85693C181.713 8.85693 192.337 8.10993 200.637 6.61593C209.103 5.28793 216.158 3.12993 221.802 0.141926H222.3V76.0869C222.3 84.0549 221.304 91.3589 219.312 97.9989C217.32 104.639 214.498 110.283 210.846 114.931C207.36 119.745 203.21 123.48 198.396 126.136C193.582 128.792 188.353 130.12 182.709 130.12C176.401 130.12 170.591 128.958 165.279 126.634C159.967 124.476 155.402 121.405 151.584 117.421C147.766 113.603 144.695 109.038 142.371 103.726C140.213 98.4139 139.134 92.6869 139.134 86.5449C139.134 80.9009 139.466 75.6719 140.13 70.8579C140.96 66.2099 141.624 62.1429 142.122 58.6569C142.786 55.3369 143.118 52.6809 143.118 50.6889C143.118 48.6969 142.371 47.6179 140.877 47.4519C139.383 47.2859 138.055 47.6179 136.893 48.4479C135.897 49.2779 134.984 50.7719 134.154 52.9299C133.49 55.2539 132.826 58.4079 132.162 62.3919C131.664 66.3759 131 71.4389 130.17 77.5809C127.846 96.1729 123.281 110.2 116.475 119.662C109.835 129.124 100.788 133.855 89.334 133.855C83.524 133.855 78.129 132.444 73.149 129.622C68.169 126.8 63.77 122.899 59.952 117.919C56.3 112.939 53.395 107.129 51.237 100.489C49.079 93.8489 48 86.7109 48 79.0749V0.141926H48.498ZM149.841 21.0579C141.541 21.0579 133.407 22.7179 125.439 26.0379C117.471 29.3579 110.333 33.6739 104.025 38.9859C97.717 44.4639 92.654 50.5229 88.836 57.1629C85.018 63.9689 83.109 70.7749 83.109 77.5809C83.109 81.3989 84.188 84.4699 86.346 86.7939C88.504 89.2839 91.326 90.5289 94.812 90.5289C97.8 90.5289 100.456 89.5329 102.78 87.5409C105.27 85.7149 107.511 83.3079 109.503 80.3199C111.661 77.3319 113.57 73.8459 115.23 69.8619C116.89 66.0439 118.467 62.1429 119.961 58.1589C121.289 54.3409 122.617 50.6889 123.945 47.2029C125.273 43.7169 126.684 40.5629 128.178 37.7409C129.838 35.0849 131.664 32.9269 133.656 31.2669C135.648 29.6069 137.972 28.7769 140.628 28.7769C143.45 28.7769 145.691 29.7729 147.351 31.7649C149.177 33.7569 150.671 36.4129 151.833 39.7329C152.995 43.0529 153.991 46.7049 154.821 50.6889C155.651 54.8389 156.564 59.0719 157.56 63.3879C158.556 67.2059 159.635 70.8579 160.797 74.3439C162.125 77.9959 163.536 81.1499 165.03 83.8059C166.69 86.6279 168.516 88.8689 170.508 90.5289C172.5 92.1889 174.741 93.0189 177.231 93.0189C181.713 93.0189 184.867 90.4459 186.693 85.2999C188.519 80.3199 189.432 74.0949 189.432 66.6249C189.432 60.3169 188.353 54.3409 186.195 48.6969C184.203 43.2189 181.381 38.4049 177.729 34.2549C174.243 30.2709 170.093 27.0339 165.279 24.5439C160.465 22.2199 155.319 21.0579 149.841 21.0579ZM48.498 221.709C51.154 223.203 54.059 223.784 57.213 223.452C60.533 223.12 64.102 222.207 67.92 220.713C71.738 219.219 75.971 217.227 80.619 214.737C85.267 212.413 90.413 209.84 96.057 207.018L129.672 190.584C125.854 187.098 121.123 184.94 115.479 184.11C110.001 183.28 104.191 183.031 98.049 183.363C92.073 183.861 86.097 184.525 80.121 185.355C74.145 186.185 68.75 186.351 63.936 185.853C59.288 185.521 55.47 184.11 52.482 181.62C49.494 179.296 48 175.229 48 169.419V140.535C48 138.709 48.581 137.464 49.743 136.8C50.905 136.136 52.399 136.302 54.225 137.298C57.213 138.626 60.035 139.788 62.691 140.784C65.347 141.78 68.335 142.776 71.655 143.772C75.141 144.934 79.208 146.262 83.856 147.756C88.504 149.25 94.314 151.159 101.286 153.483C112.408 157.135 121.123 161.451 127.431 166.431C133.739 171.577 137.972 177.968 140.13 185.604L174.492 168.921C180.136 166.099 185.282 163.111 189.93 159.957C194.578 156.803 198.811 153.732 202.629 150.744C206.447 147.922 209.933 145.266 213.087 142.776C216.241 140.286 219.229 138.294 222.051 136.8H222.549L222.3 202.038H221.802C218.98 200.544 215.992 199.963 212.838 200.295C209.684 200.627 206.198 201.54 202.38 203.034C198.562 204.528 194.329 206.52 189.681 209.01C185.199 211.5 180.053 214.156 174.243 216.978L146.106 230.673C149.26 235.155 153.327 237.977 158.307 239.139C163.287 240.467 168.599 240.965 174.243 240.633C179.887 240.467 185.531 239.969 191.175 239.139C196.985 238.309 202.131 237.977 206.613 238.143C211.261 238.475 214.996 239.72 217.818 241.878C220.806 244.036 222.3 248.103 222.3 254.079V281.718C222.3 285.702 220.391 286.781 216.573 284.955C213.917 283.627 211.344 282.465 208.854 281.469C206.53 280.473 203.791 279.394 200.637 278.232C197.649 277.236 194.08 275.991 189.93 274.497C185.78 273.169 180.551 271.426 174.243 269.268C163.287 265.45 154.904 260.802 149.094 255.324C143.284 250.012 139.715 243.123 138.387 234.657L96.057 255.324C90.413 258.146 85.267 261.134 80.619 264.288C75.971 267.442 71.738 270.513 67.92 273.501C64.102 276.489 60.616 279.228 57.462 281.718C54.308 284.208 51.32 286.2 48.498 287.694H48L48 221.709H48.498ZM44.016 369.65C44.016 358.86 46.257 348.734 50.739 339.272C55.387 329.976 61.695 321.759 69.663 314.621C77.631 307.649 87.01 302.005 97.8 297.689C108.59 293.373 120.21 290.966 132.66 290.468C145.774 289.97 157.975 291.464 169.263 294.95C180.717 298.602 190.677 303.665 199.143 310.139C207.609 316.779 214.249 324.581 219.063 333.545C223.877 342.675 226.284 352.552 226.284 363.176C226.284 373.8 223.96 383.843 219.312 393.305C214.83 402.767 208.605 410.984 200.637 417.956C192.669 425.094 183.29 430.821 172.5 435.137C161.71 439.453 150.09 441.86 137.64 442.358C124.526 442.856 112.242 441.279 100.788 437.627C89.5 434.141 79.623 429.078 71.157 422.438C62.691 415.964 56.051 408.162 51.237 399.032C46.423 390.068 44.016 380.274 44.016 369.65ZM129.423 337.778C102.531 341.596 83.192 346.576 71.406 352.718C59.62 359.026 54.308 367.243 55.47 377.369C56.798 387.495 64.185 393.969 77.631 396.791C91.243 399.613 112.325 399.032 140.877 395.048C167.769 391.396 187.108 386.416 198.894 380.108C210.846 373.8 216.158 365.583 214.83 355.457C213.668 345.331 206.281 338.857 192.669 336.035C179.057 333.213 157.975 333.794 129.423 337.778ZM59.205 461.305C59.869 465.787 61.944 470.269 65.43 474.751C68.916 479.399 73.315 483.632 78.627 487.45C84.105 491.268 90.164 494.588 96.804 497.41C103.444 500.398 110.25 502.473 117.222 503.635C124.194 504.963 131 505.295 137.64 504.631C144.28 504.133 150.256 502.307 155.568 499.153C159.718 496.829 163.121 493.758 165.777 489.94C168.599 486.288 171.421 482.802 174.243 479.482C177.231 476.328 180.634 473.838 184.452 472.012C188.436 470.186 193.748 470.02 200.388 471.514C203.542 472.178 206.53 473.423 209.352 475.249C212.174 477.075 214.581 479.316 216.573 481.972C218.731 484.794 220.391 488.031 221.553 491.683C222.715 495.335 223.213 499.319 223.047 503.635L222.798 616.681C218.648 613.195 214.913 610.373 211.593 608.215C208.439 606.223 205.285 604.646 202.131 603.484C199.143 602.488 195.989 601.824 192.669 601.492C189.349 601.16 185.614 600.994 181.464 600.994H59.205V615.187C59.205 619.503 56.383 621.661 50.739 621.661L5.421 621.413C3.263 621.413 1.935 621.247 1.437 620.914C0.772997 620.582 0.440996 620.085 0.440996 619.42C0.440996 617.594 0.772997 616.017 1.437 614.69C2.101 613.527 3.18 612.365 4.674 611.204C6.168 610.041 8.077 608.796 10.401 607.468C12.559 606.306 15.298 604.895 18.618 603.235C22.768 600.579 26.669 598.255 30.321 596.264C33.807 594.437 36.878 592.362 39.534 590.038C42.024 587.714 44.016 584.892 45.51 581.572C47.004 578.418 47.834 574.351 48 569.371V499.153C47.834 494.173 47.004 490.189 45.51 487.201C44.016 484.213 41.941 481.64 39.285 479.482C36.629 477.324 33.558 475.249 30.072 473.257C26.586 471.431 22.768 469.273 18.618 466.783C12.144 463.131 7.496 459.894 4.674 457.072C1.852 454.416 0.440996 451.262 0.440996 447.61C0.440996 446.946 0.772997 446.448 1.437 446.116C1.935 445.784 3.263 445.618 5.421 445.618H50.739C56.383 445.618 59.205 447.776 59.205 452.092V461.305ZM178.227 544.72C178.725 542.396 178.974 539.491 178.974 536.005C179.14 532.519 178.891 528.95 178.227 525.298C177.729 521.812 176.899 518.409 175.737 515.089C174.575 511.935 172.998 509.445 171.006 507.619C169.014 505.959 166.607 505.295 163.785 505.627C160.963 505.959 157.643 507.868 153.825 511.354C146.687 517.828 138.885 523.223 130.419 527.539C122.119 532.021 113.736 534.511 105.27 535.009C96.804 535.507 88.587 533.515 80.619 529.033C72.651 524.717 65.513 516.998 59.205 505.876V560.407L150.09 560.905C158.722 560.905 165.445 559.743 170.259 557.419C175.239 555.095 177.895 550.862 178.227 544.72Z" fill="#F28705" fill-opacity="0.5"/>
</svg>
