<svg width="183" height="1249" viewBox="0 0 183 1249" fill="none" xmlns="http://www.w3.org/2000/svg">
<path d="M4.498 0.0818672C10.142 3.06987 17.114 5.22787 25.414 6.55587C33.88 8.04987 44.587 8.79687 57.535 8.79687L124.765 8.79687C137.713 8.79687 148.337 8.04987 156.637 6.55587C165.103 5.22787 172.158 3.06987 177.802 0.0818672H178.3V58.0989C178.3 65.0709 173.486 68.5569 163.858 68.5569C158.048 68.5569 152.736 67.3949 147.922 65.0709C143.274 62.7469 138.958 59.7589 134.974 56.1069C130.99 52.6209 127.255 48.8029 123.769 44.6529C120.283 40.6689 116.797 36.8509 113.311 33.1989C109.991 29.7129 106.422 26.8079 102.604 24.4839C98.952 22.1599 94.968 20.9979 90.652 20.9979C87.332 20.9979 84.427 22.1599 81.937 24.4839C79.613 26.8079 78.451 29.6299 78.451 32.9499C78.451 38.7599 81.273 44.5699 86.917 50.3799C92.561 56.1899 99.865 61.4189 108.829 66.0669C117.959 70.7149 128.085 74.4499 139.207 77.2719C150.495 80.2599 161.617 81.7539 172.573 81.7539C176.391 81.7539 178.3 83.3309 178.3 86.4849V129.811C178.3 131.803 177.636 133.38 176.308 134.542C174.98 135.87 171.992 135.372 167.344 133.048C153.4 125.91 139.871 116.78 126.757 105.658C113.643 94.5359 100.861 82.0029 88.411 68.0589C85.589 64.7389 83.348 63.5769 81.688 64.5729C80.028 65.5689 79.945 67.9759 81.439 71.7939L86.17 83.7459C87.996 88.5599 88.245 93.0419 86.917 97.1919C85.589 101.508 82.767 104.828 78.451 107.152L52.306 121.096C37.366 129.064 26.244 135.206 18.94 139.522C11.636 144.004 6.822 147.241 4.498 149.233H4V105.16C4 98.8519 5.577 93.5399 8.731 89.2239C11.885 85.0739 16.616 81.3389 22.924 78.0189C28.07 75.1969 33.382 72.2919 38.86 69.3039C44.338 66.3159 49.235 63.3279 53.551 60.3399C58.033 57.3519 61.685 54.3639 64.507 51.3759C67.329 48.5539 68.74 45.8149 68.74 43.1589C68.74 40.8349 67.329 38.9259 64.507 37.4319C61.685 35.9379 58.282 35.1909 54.298 35.1909C48.488 35.1909 42.761 37.4319 37.117 41.9139C31.473 46.5619 24.418 53.7829 15.952 63.5769C12.632 67.3949 9.81 69.0549 7.486 68.5569C5.162 68.0589 4 66.0669 4 62.5809L4 0.0818672H4.498ZM0.0159998 230.987C0.0159998 220.197 2.257 210.071 6.739 200.609C11.387 191.313 17.695 183.096 25.663 175.958C33.631 168.986 43.01 163.342 53.8 159.026C64.59 154.71 76.21 152.303 88.66 151.805C101.774 151.307 113.975 152.801 125.263 156.287C136.717 159.939 146.677 165.002 155.143 171.476C163.609 178.116 170.249 185.918 175.063 194.882C179.877 204.012 182.284 213.889 182.284 224.513C182.284 235.137 179.96 245.18 175.312 254.642C170.83 264.104 164.605 272.321 156.637 279.293C148.669 286.431 139.29 292.158 128.5 296.474C117.71 300.79 106.09 303.197 93.64 303.695C80.526 304.193 68.242 302.616 56.788 298.964C45.5 295.478 35.623 290.415 27.157 283.775C18.691 277.301 12.051 269.499 7.237 260.369C2.423 251.405 0.0159998 241.611 0.0159998 230.987ZM85.423 199.115C58.531 202.933 39.192 207.913 27.406 214.055C15.62 220.363 10.308 228.58 11.47 238.706C12.798 248.832 20.185 255.306 33.631 258.128C47.243 260.95 68.325 260.369 96.877 256.385C123.769 252.733 143.108 247.753 154.894 241.445C166.846 235.137 172.158 226.92 170.83 216.794C169.668 206.668 162.281 200.194 148.669 197.372C135.057 194.55 113.975 195.131 85.423 199.115ZM41.599 320.899C47.907 320.899 53.551 322.476 58.531 325.63C63.511 328.95 67.91 333.1 71.728 338.08C75.546 343.06 78.783 348.538 81.439 354.514C84.261 360.49 86.585 366.3 88.411 371.944C90.403 377.588 91.98 382.651 93.142 387.133C94.304 391.615 95.134 394.852 95.632 396.844C96.13 398.338 96.794 399.417 97.624 400.081C98.62 400.745 99.533 400.911 100.363 400.579C101.193 400.413 101.857 399.749 102.355 398.587C102.853 397.425 103.019 395.682 102.853 393.358C102.189 384.892 100.363 375.845 97.375 366.217C94.553 356.755 90.984 347.542 86.668 338.578C83.68 331.606 82.85 326.875 84.178 324.385C85.506 321.895 89.656 320.65 96.628 320.65H140.701C149.665 320.65 156.886 319.571 162.364 317.413C168.008 315.421 173.071 311.935 177.553 306.955H178.3V369.952H177.553C173.071 364.972 168.008 361.403 162.364 359.245C156.886 357.253 149.665 356.257 140.701 356.257H116.05C112.066 356.257 109.825 357.502 109.327 359.992C108.995 362.482 109.244 365.47 110.074 368.956C114.058 387.216 114.888 400.496 112.564 408.796H140.701C149.665 408.796 156.886 407.717 162.364 405.559C168.008 403.567 173.071 400.081 177.553 395.101H178.3L178.3 460.588H177.553C173.071 455.608 168.008 452.039 162.364 449.881C156.886 447.889 149.665 446.893 140.701 446.893L41.599 446.893C32.635 446.893 25.331 447.889 19.687 449.881C14.209 452.039 9.229 455.608 4.747 460.588H4V395.35H4.747C9.229 400.33 14.209 403.816 19.687 405.808C25.331 407.966 32.635 409.045 41.599 409.045L87.913 409.045C87.083 407.219 86.336 405.227 85.672 403.069C83.514 396.097 81.107 389.706 78.451 383.896C75.795 378.252 72.807 373.355 69.487 369.205C66.167 365.055 62.349 361.818 58.033 359.494C53.717 357.336 48.82 356.257 43.342 356.257H41.599C32.635 356.257 25.331 357.253 19.687 359.245C14.209 361.403 9.229 364.972 4.747 369.952H4V307.204H4.747C9.229 312.184 14.209 315.67 19.687 317.662C25.331 319.82 32.635 320.899 41.599 320.899ZM4 513.341C7.984 510.021 12.383 507.531 17.197 505.871C22.011 504.377 26.991 503.63 32.137 503.63C40.603 503.63 48.156 504.709 54.796 506.867C61.436 509.025 68.159 511.432 74.965 514.088C81.937 516.744 89.573 519.151 97.873 521.309C106.173 523.467 116.382 524.546 128.5 524.546C134.808 524.546 139.207 524.131 141.697 523.301C144.187 522.471 145.432 521.143 145.432 519.317V518.321C145.432 505.373 144.104 494.666 141.448 486.2C138.792 477.9 134.642 470.928 128.998 465.284V464.786H178.3L178.3 596.756H128.998V596.258C134.642 590.614 138.792 583.559 141.448 575.093C144.104 566.793 145.432 556.169 145.432 543.221V542.225C145.432 540.399 144.187 539.071 141.697 538.241C139.207 537.411 134.808 536.996 128.5 536.996C116.382 536.996 106.173 538.075 97.873 540.233C89.573 542.391 81.937 544.798 74.965 547.454C68.159 550.11 61.436 552.517 54.796 554.675C48.156 556.833 40.603 557.912 32.137 557.912C26.991 557.912 22.011 557.082 17.197 555.422C12.383 553.928 7.984 551.521 4 548.201L4 513.341ZM2.506 627.068C2.506 608.974 4.166 600.425 7.486 601.421L54.547 613.373C57.369 614.203 58.116 615.863 56.788 618.353C54.298 623.997 52.306 629.641 50.812 635.285C49.318 641.095 48.571 646.573 48.571 651.719C48.571 654.209 48.903 656.035 49.567 657.197C50.397 658.525 51.31 659.189 52.306 659.189C53.302 659.355 54.298 658.857 55.294 657.695C56.456 656.699 57.369 655.122 58.033 652.964L65.005 631.301C67.993 621.839 74.965 618.519 85.921 621.341L126.259 631.55C138.709 634.704 149.001 636.945 157.135 638.273C165.269 639.601 172.158 638.771 177.802 635.783H178.3L178.051 715.712H177.553C171.909 712.724 164.937 711.728 156.637 712.724C148.503 713.886 138.211 715.878 125.761 718.7L56.29 734.636C43.84 737.458 33.465 740.778 25.165 744.596C17.031 748.58 10.142 752.066 4.498 755.054H4L4 692.555H4.498C10.142 695.543 17.031 696.456 25.165 695.294C33.465 694.132 43.84 692.14 56.29 689.318L114.307 676.121C123.935 673.963 130.907 671.39 135.223 668.402C139.705 665.414 142.112 662.426 142.444 659.438C142.776 656.45 141.448 653.711 138.46 651.221C135.472 648.731 131.488 646.822 126.508 645.494L92.146 636.779C87.332 635.451 83.68 635.368 81.19 636.53C78.7 637.692 76.708 640.265 75.214 644.249L70.732 655.703C69.072 660.019 67.329 663.754 65.503 666.908C63.843 670.228 61.851 672.967 59.527 675.125C57.369 677.449 54.796 679.109 51.808 680.105C48.82 681.267 45.334 681.848 41.35 681.848C35.54 681.848 30.228 680.437 25.414 677.615C20.766 674.793 16.699 670.892 13.213 665.912C9.893 660.932 7.237 655.122 5.245 648.482C3.419 641.842 2.506 634.704 2.506 627.068ZM4.498 756.808C10.142 759.796 17.114 761.954 25.414 763.282C33.88 764.776 44.587 765.523 57.535 765.523H124.765C137.713 765.523 148.337 764.776 156.637 763.282C165.103 761.954 172.158 759.796 177.802 756.808H178.3V814.825C178.3 821.797 173.486 825.283 163.858 825.283C158.048 825.283 152.736 824.121 147.922 821.797C143.274 819.473 138.958 816.485 134.974 812.833C130.99 809.347 127.255 805.529 123.769 801.379C120.283 797.395 116.797 793.577 113.311 789.925C109.991 786.439 106.422 783.534 102.604 781.21C98.952 778.886 94.968 777.724 90.652 777.724C87.332 777.724 84.427 778.886 81.937 781.21C79.613 783.534 78.451 786.356 78.451 789.676C78.451 795.486 81.273 801.296 86.917 807.106C92.561 812.916 99.865 818.145 108.829 822.793C117.959 827.441 128.085 831.176 139.207 833.998C150.495 836.986 161.617 838.48 172.573 838.48C176.391 838.48 178.3 840.057 178.3 843.211V886.537C178.3 888.529 177.636 890.106 176.308 891.268C174.98 892.596 171.992 892.098 167.344 889.774C153.4 882.636 139.871 873.506 126.757 862.384C113.643 851.262 100.861 838.729 88.411 824.785C85.589 821.465 83.348 820.303 81.688 821.299C80.028 822.295 79.945 824.702 81.439 828.52L86.17 840.472C87.996 845.286 88.245 849.768 86.917 853.918C85.589 858.234 82.767 861.554 78.451 863.878L52.306 877.822C37.366 885.79 26.244 891.932 18.94 896.248C11.636 900.73 6.822 903.967 4.498 905.959H4L4 861.886C4 855.578 5.577 850.266 8.731 845.95C11.885 841.8 16.616 838.065 22.924 834.745C28.07 831.923 33.382 829.018 38.86 826.03C44.338 823.042 49.235 820.054 53.551 817.066C58.033 814.078 61.685 811.09 64.507 808.102C67.329 805.28 68.74 802.541 68.74 799.885C68.74 797.561 67.329 795.652 64.507 794.158C61.685 792.664 58.282 791.917 54.298 791.917C48.488 791.917 42.761 794.158 37.117 798.64C31.473 803.288 24.418 810.509 15.952 820.303C12.632 824.121 9.81 825.781 7.486 825.283C5.162 824.785 4 822.793 4 819.307V756.808H4.498ZM4 958.331C7.984 955.011 12.383 952.521 17.197 950.861C22.011 949.367 26.991 948.62 32.137 948.62C40.603 948.62 48.156 949.699 54.796 951.857C61.436 954.015 68.159 956.422 74.965 959.078C81.937 961.734 89.573 964.141 97.873 966.299C106.173 968.457 116.382 969.536 128.5 969.536C134.808 969.536 139.207 969.121 141.697 968.291C144.187 967.461 145.432 966.133 145.432 964.307V963.311C145.432 950.363 144.104 939.656 141.448 931.19C138.792 922.89 134.642 915.918 128.998 910.274V909.776H178.3V1041.75H128.998V1041.25C134.642 1035.6 138.792 1028.55 141.448 1020.08C144.104 1011.78 145.432 1001.16 145.432 988.211V987.215C145.432 985.389 144.187 984.061 141.697 983.231C139.207 982.401 134.808 981.986 128.5 981.986C116.382 981.986 106.173 983.065 97.873 985.223C89.573 987.381 81.937 989.788 74.965 992.444C68.159 995.1 61.436 997.507 54.796 999.665C48.156 1001.82 40.603 1002.9 32.137 1002.9C26.991 1002.9 22.011 1002.07 17.197 1000.41C12.383 998.918 7.984 996.511 4 993.191V958.331ZM178.3 1046.66L178.3 1108.41C178.3 1111.23 177.221 1112.56 175.063 1112.4C172.905 1112.4 170.996 1111.65 169.336 1110.15C154.23 1095.55 139.705 1084.76 125.761 1077.78C111.983 1070.98 98.039 1067.58 83.929 1067.58C77.621 1067.58 71.811 1069.24 66.499 1072.56C61.187 1076.04 56.539 1080.86 52.555 1087C48.737 1093.31 45.749 1100.78 43.591 1109.41C41.433 1118.21 40.354 1128 40.354 1138.79C40.354 1147.26 41.931 1154.14 45.085 1159.46C48.405 1164.93 52.887 1167.67 58.531 1167.67C65.503 1167.67 70.732 1164.93 74.218 1159.46C77.704 1154.14 79.862 1147.34 80.692 1139.04C81.522 1130.74 81.19 1121.61 79.696 1111.65C78.202 1101.85 76.044 1092.56 73.222 1083.76C72.392 1080.94 74.384 1079.28 79.198 1078.78C86.668 1078.12 93.308 1078.86 99.118 1081.02C104.928 1083.18 109.825 1086.17 113.809 1089.99C117.793 1093.97 120.781 1098.45 122.773 1103.43C124.931 1108.58 126.01 1113.72 126.01 1118.87C126.01 1127.5 124.184 1135.55 120.532 1143.02C116.88 1150.66 111.9 1157.22 105.592 1162.69C99.284 1168.34 91.814 1172.74 83.182 1175.89C74.716 1179.21 65.586 1180.87 55.792 1180.87C47.99 1180.87 40.852 1179.38 34.378 1176.39C28.07 1173.57 22.675 1169.5 18.193 1164.19C13.711 1159.04 10.225 1152.9 7.735 1145.76C5.245 1138.79 4 1131.07 4 1122.6V1046.66H4.498C10.142 1049.65 17.114 1051.81 25.414 1053.13C33.88 1054.63 44.587 1055.37 57.535 1055.37H124.765C137.713 1055.37 148.337 1054.63 156.637 1053.13C165.103 1051.81 172.158 1049.65 177.802 1046.66H178.3ZM178.3 1246.11H177.802C172.656 1243.29 165.85 1240.96 157.384 1239.14C149.084 1237.31 139.871 1235.98 129.745 1235.15C119.619 1234.49 108.829 1234.24 97.375 1234.41C86.087 1234.74 74.882 1235.4 63.76 1236.4C52.638 1237.56 41.931 1239.14 31.639 1241.13C21.513 1243.29 12.466 1245.78 4.498 1248.6H4L4 1187.34C22.426 1194.48 40.603 1199.21 58.531 1201.54C76.625 1203.86 93.474 1204.44 109.078 1203.28C124.682 1202.12 138.543 1199.71 150.661 1196.06C162.779 1192.41 171.992 1188.26 178.3 1183.61V1246.11Z" fill="#F28705" fill-opacity="0.5"/>
</svg>
