<svg width="252" height="71" viewBox="0 0 252 71" fill="none" xmlns="http://www.w3.org/2000/svg">
<path d="M31.008 70.536C26.848 70.536 22.944 69.672 19.296 67.944C15.712 66.152 12.544 63.72 9.792 60.648C7.104 57.576 4.928 53.96 3.264 49.8C1.6 45.64 0.672 41.16 0.48 36.36C0.288 31.304 0.864 26.6 2.208 22.248C3.616 17.832 5.568 13.992 8.064 10.728C10.624 7.46399 13.632 4.904 17.088 3.048C20.608 1.192 24.416 0.263998 28.512 0.263998C32.608 0.263998 36.48 1.16 40.128 2.952C43.776 4.68 46.944 7.08 49.632 10.152C52.384 13.224 54.592 16.84 56.256 21C57.92 25.16 58.848 29.64 59.04 34.44C59.232 39.496 58.624 44.232 57.216 48.648C55.872 53 53.92 56.808 51.36 60.072C48.864 63.336 45.856 65.896 42.336 67.752C38.88 69.608 35.104 70.536 31.008 70.536ZM18.72 37.608C20.192 47.976 22.112 55.432 24.48 59.976C26.912 64.52 30.08 66.568 33.984 66.12C37.888 65.608 40.384 62.76 41.472 57.576C42.56 52.328 42.336 44.2 40.8 33.192C39.392 22.824 37.472 15.368 35.04 10.824C32.608 6.216 29.44 4.168 25.536 4.68C21.632 5.128 19.136 7.976 18.048 13.224C16.96 18.472 17.184 26.6 18.72 37.608ZM84.8918 54.504C84.8918 52.072 85.4998 49.896 86.7158 47.976C87.9958 46.056 89.5958 44.36 91.5157 42.888C93.4358 41.416 95.5478 40.168 97.8518 39.144C100.156 38.056 102.396 37.16 104.572 36.456C106.748 35.688 108.7 35.08 110.428 34.632C112.156 34.184 113.404 33.864 114.172 33.672C114.748 33.48 115.164 33.224 115.42 32.904C115.676 32.52 115.74 32.168 115.612 31.848C115.548 31.528 115.292 31.272 114.844 31.08C114.396 30.888 113.724 30.824 112.828 30.888C109.564 31.144 106.076 31.848 102.364 33C98.7158 34.088 95.1638 35.464 91.7078 37.128C89.0198 38.28 87.1958 38.6 86.2358 38.088C85.2758 37.576 84.7958 35.976 84.7958 33.288V16.296C84.7958 12.84 84.3798 10.056 83.5478 7.944C82.7798 5.768 81.4358 3.816 79.5158 2.088V1.8H103.804V2.088C101.884 3.816 100.508 5.768 99.6758 7.944C98.9078 10.056 98.5238 12.84 98.5238 16.296V25.8C98.5238 27.336 99.0038 28.2 99.9638 28.392C100.924 28.52 102.076 28.424 103.42 28.104C110.46 26.568 115.58 26.248 118.78 27.144V16.296C118.78 12.84 118.364 10.056 117.532 7.944C116.764 5.768 115.42 3.816 113.5 2.088V1.8H138.748V2.088C136.828 3.816 135.452 5.768 134.62 7.944C133.852 10.056 133.468 12.84 133.468 16.296V54.504C133.468 57.96 133.852 60.776 134.62 62.952C135.452 65.064 136.828 66.984 138.748 68.712V69H113.596V68.712C115.516 66.984 116.86 65.064 117.628 62.952C118.46 60.776 118.876 57.96 118.876 54.504V36.648C118.172 36.968 117.404 37.256 116.572 37.512C113.884 38.344 111.42 39.272 109.18 40.296C107.004 41.32 105.116 42.472 103.516 43.752C101.916 45.032 100.668 46.504 99.7718 48.168C98.9398 49.832 98.5238 51.72 98.5238 53.832V54.504C98.5238 57.96 98.9078 60.776 99.6758 62.952C100.508 65.064 101.884 66.984 103.804 68.712V69H79.6118V68.712C81.5318 66.984 82.8758 65.064 83.6438 62.952C84.4758 60.776 84.8918 57.96 84.8918 54.504ZM154.766 21.576C154.766 22.728 155.086 23.912 155.726 25.128C156.43 26.344 157.39 27.496 158.606 28.584C159.822 29.608 161.198 30.6 162.734 31.56C164.334 32.456 166.062 33.192 167.918 33.768C169.134 34.216 169.966 34.76 170.414 35.4C170.926 36.04 171.118 36.712 170.99 37.416C170.926 38.12 170.574 38.856 169.934 39.624C169.358 40.392 168.654 41.096 167.822 41.736C166.606 42.632 165.358 43.592 164.078 44.616C162.862 45.64 161.838 46.76 161.006 47.976C160.238 49.128 159.79 50.344 159.662 51.624C159.534 52.904 159.982 54.248 161.006 55.656C162.35 57.512 163.758 58.344 165.23 58.152C166.702 57.96 168.078 57.288 169.358 56.136C170.702 54.92 171.79 53.448 172.622 51.72C173.518 49.992 174.03 48.552 174.158 47.4V24.168C174.158 21.736 173.678 19.72 172.718 18.12C171.758 16.456 170.542 15.208 169.07 14.376C167.662 13.544 166.126 13.096 164.462 13.032C162.798 12.904 161.23 13.16 159.758 13.8C158.35 14.44 157.166 15.432 156.206 16.776C155.246 18.056 154.766 19.656 154.766 21.576ZM191.822 53.736C191.694 59.752 193.774 63.976 198.062 66.408C198.51 66.856 198.734 67.4 198.734 68.04C198.734 68.68 198.35 69 197.582 69H168.686C167.918 69 167.566 68.712 167.63 68.136C167.758 67.56 168.046 67.048 168.494 66.6C170.542 65.384 172.046 63.688 173.006 61.512C173.966 59.272 174.414 56.68 174.35 53.736C173.454 56.04 172.27 58.216 170.798 60.264C169.326 62.312 167.694 64.104 165.902 65.64C164.174 67.112 162.286 68.296 160.238 69.192C158.254 70.088 156.302 70.536 154.382 70.536C152.334 70.536 150.414 70.184 148.622 69.48C146.894 68.84 145.39 67.944 144.11 66.792C142.83 65.576 141.806 64.168 141.038 62.568C140.27 60.904 139.886 59.144 139.886 57.288C139.886 55.176 140.43 53.256 141.518 51.528C142.606 49.8 144.014 48.264 145.742 46.92C147.534 45.576 149.55 44.424 151.79 43.464C154.094 42.504 156.43 41.704 158.798 41.064C160.974 40.488 162.83 39.976 164.366 39.528C165.966 39.016 166.766 38.408 166.766 37.704C166.766 37.448 166.286 37.16 165.326 36.84C164.366 36.456 163.15 36.04 161.678 35.592C160.27 35.08 158.702 34.472 156.974 33.768C155.246 33 153.582 32.072 151.982 30.984C150.446 29.896 149.07 28.584 147.854 27.048C146.638 25.448 145.87 23.592 145.55 21.48C145.166 19.048 145.262 16.648 145.838 14.28C146.478 11.912 147.662 9.8 149.39 7.944C151.118 6.024 153.39 4.488 156.206 3.336C159.086 2.184 162.542 1.608 166.574 1.608C174.958 1.608 181.262 4.072 185.486 9C189.774 13.864 191.886 20.872 191.822 30.024V53.736ZM228.588 70.536C224.748 70.536 221.132 69.672 217.74 67.944C214.348 66.216 211.372 63.88 208.812 60.936C206.252 57.928 204.172 54.408 202.572 50.376C201.036 46.344 200.172 41.992 199.98 37.32C199.788 32.392 200.332 27.752 201.612 23.4C202.892 18.984 204.716 15.144 207.084 11.88C209.452 8.616 212.268 6.024 215.532 4.10399C218.796 2.184 222.316 1.224 226.092 1.224C228.204 1.224 230.124 1.352 231.852 1.608C233.644 1.8 235.404 1.99199 237.132 2.184C238.86 2.376 240.652 2.44 242.508 2.376C244.364 2.312 246.444 1.99199 248.748 1.41599C249.708 1.224 250.38 1.576 250.764 2.472C251.532 4.776 251.884 6.92 251.82 8.904C251.756 10.824 251.34 12.52 250.572 13.992C249.804 15.4 248.684 16.52 247.212 17.352C245.74 18.184 243.948 18.6 241.836 18.6C239.596 18.6 237.42 18.344 235.308 17.832C233.26 17.32 231.276 16.648 229.356 15.816C227.5 14.984 225.676 14.056 223.884 13.032C222.156 11.944 220.492 10.888 218.892 9.86399C217.804 9.16 216.716 9.096 215.628 9.672C214.54 10.184 213.548 11.144 212.652 12.552C211.82 13.96 211.116 15.72 210.54 17.832C209.964 19.944 209.676 22.216 209.676 24.648C209.676 29.064 210.252 33 211.404 36.456C212.62 39.912 214.284 42.856 216.396 45.288C218.572 47.72 221.132 49.576 224.076 50.856C227.02 52.136 230.252 52.776 233.772 52.776C239.788 52.776 244.812 50.632 248.844 46.344C249.228 45.896 249.708 45.832 250.284 46.152C250.86 46.472 251.148 47.368 251.148 48.84C251.148 51.912 250.572 54.76 249.42 57.384C248.268 60.008 246.668 62.312 244.62 64.296C242.572 66.216 240.172 67.752 237.42 68.904C234.668 69.992 231.724 70.536 228.588 70.536Z" fill="#F24405" fill-opacity="0.5"/>
</svg>
