<svg width="297" height="43" viewBox="0 0 297 43" fill="none" xmlns="http://www.w3.org/2000/svg">
<path d="M7.04 32.264C6.10133 32.264 5.22133 32.0733 4.4 31.692C3.57867 31.3107 2.86 30.7827 2.244 30.108C1.65733 29.4333 1.188 28.656 0.836 27.776C0.484 26.8667 0.308 25.884 0.308 24.828C0.308 23.068 0.616 21.44 1.232 19.944C1.848 18.4187 2.772 17.0693 4.004 15.896C4.15067 15.7493 4.29733 15.6907 4.444 15.72C4.59067 15.72 4.752 15.7493 4.928 15.808C5.42667 15.984 5.96933 16.2187 6.556 16.512C7.14267 16.8053 7.72933 17.1427 8.316 17.524C8.932 17.876 9.504 18.2427 10.032 18.624C10.5893 19.0053 11.0587 19.372 11.44 19.724C11.8213 20.1053 11.8067 20.4427 11.396 20.736C10.516 21.264 9.88533 21.8653 9.504 22.54C9.12267 23.2147 8.932 23.86 8.932 24.476C8.932 25.0627 9.108 25.5613 9.46 25.972C9.812 26.3827 10.296 26.588 10.912 26.588C11.9093 26.588 12.7453 26.1627 13.42 25.312C14.124 24.432 14.476 23.3613 14.476 22.1C14.476 20.516 13.9773 19.0933 12.98 17.832C11.9827 16.5413 10.516 15.5587 8.58 14.884C7.31867 14.4733 6.26267 14.0627 5.412 13.652C4.56133 13.212 3.872 12.7427 3.344 12.244C2.816 11.7453 2.43467 11.188 2.2 10.572C1.99467 9.92667 1.892 9.208 1.892 8.416C1.892 7.36 2.14133 6.392 2.64 5.512C3.13867 4.632 3.84267 3.86933 4.752 3.224C5.69067 2.57866 6.82 2.08 8.14 1.728C9.46 1.376 10.9267 1.2 12.54 1.2H25.96V1.288C25.432 2.28533 25.036 3.532 24.772 5.028C24.5373 6.49467 24.42 8.372 24.42 10.66V22.54C24.42 24.828 24.5373 26.72 24.772 28.216C25.036 29.6827 25.432 30.9147 25.96 31.912V32H15.048C14.5493 32 14.3 31.8093 14.3 31.428C14.3293 31.0467 14.476 30.7093 14.74 30.416C17.292 27.7467 19.184 25.1947 20.416 22.76C21.648 20.296 22.264 17.8173 22.264 15.324C22.264 14.2093 21.956 13.1827 21.34 12.244C20.7533 11.3053 19.9027 10.4987 18.788 9.824C17.7027 9.12 16.3827 8.57733 14.828 8.196C13.3027 7.81467 11.5867 7.624 9.68 7.624C8.41867 7.624 7.36267 7.85867 6.512 8.328C5.66133 8.768 5.236 9.32533 5.236 10C5.236 10.968 5.92533 11.716 7.304 12.244C8.712 12.772 10.604 13.036 12.98 13.036C14.3587 13.036 15.5173 13.1093 16.456 13.256C17.424 13.3733 18.1867 13.5787 18.744 13.872C19.3307 14.136 19.7413 14.5027 19.976 14.972C20.24 15.4413 20.372 15.9987 20.372 16.644C20.372 17.3773 20.1667 18.272 19.756 19.328C19.3747 20.384 18.8467 21.484 18.172 22.628C17.4973 23.772 16.72 24.9307 15.84 26.104C14.96 27.248 14.0213 28.2747 13.024 29.184C12.0267 30.0933 11.0147 30.8413 9.988 31.428C8.96133 31.9853 7.97867 32.264 7.04 32.264ZM26.256 32V31.912C26.9013 31.0027 27.4293 29.7267 27.84 28.084C28.2506 26.4413 28.5586 24.6227 28.764 22.628C28.9693 20.6333 29.072 18.5507 29.072 16.38C29.072 14.2093 28.9693 12.1413 28.764 10.176C28.5586 8.21067 28.2653 6.436 27.884 4.852C27.5026 3.268 27.0333 2.08 26.476 1.288V1.2H37.696C37.9306 2.872 37.96 4.35333 37.784 5.644C37.608 6.90533 37.3146 8.064 36.904 9.12C36.4933 10.1467 36.024 11.1 35.496 11.98C34.968 12.86 34.4693 13.7253 34 14.576C33.5306 15.4267 33.12 16.3067 32.768 17.216C32.416 18.096 32.24 19.0787 32.24 20.164C32.2106 22.1 32.6946 23.552 33.692 24.52C34.7186 25.4587 36.4346 25.9133 38.84 25.884C41.2453 25.9133 42.9466 25.4587 43.944 24.52C44.9706 23.552 45.4693 22.1 45.44 20.164C45.4106 19.0787 45.22 18.096 44.868 17.216C44.5453 16.3067 44.1493 15.4267 43.68 14.576C43.2106 13.7253 42.712 12.86 42.184 11.98C41.656 11.1 41.1866 10.1467 40.776 9.12C40.3653 8.064 40.072 6.90533 39.896 5.644C39.72 4.35333 39.7493 2.872 39.984 1.2H51.204V1.288C50.3826 2.46133 49.6493 3.972 49.004 5.82C48.388 7.668 47.9626 9.76533 47.728 12.112C47.6693 12.816 47.6106 13.6373 47.552 14.576C47.4933 15.5147 47.4786 16.4973 47.508 17.524C47.5666 18.5507 47.684 19.5627 47.86 20.56C48.036 21.528 48.3293 22.408 48.74 23.2C49.18 23.992 49.752 24.6373 50.456 25.136C51.1893 25.6053 52.0986 25.84 53.184 25.84C55.5893 25.8693 57.2906 25.4147 58.288 24.476C59.3146 23.508 59.8133 22.056 59.784 20.12C59.7546 19.0347 59.564 18.052 59.212 17.172C58.8893 16.2627 58.4933 15.3827 58.024 14.532C57.5546 13.6813 57.056 12.816 56.528 11.936C56 11.056 55.5306 10.1027 55.12 9.076C54.7093 8.02 54.416 6.86133 54.24 5.6C54.064 4.30933 54.0933 2.828 54.328 1.156H65.548V1.244C64.932 2.124 64.3746 3.444 63.876 5.204C63.4066 6.964 63.0253 8.92933 62.732 11.1C62.468 13.2413 62.3213 15.4853 62.292 17.832C62.292 20.1787 62.4533 22.3787 62.776 24.432C64.624 24.432 65.8853 24.8427 66.56 25.664C67.264 26.456 67.616 27.468 67.616 28.7C67.616 29.756 67.44 30.7827 67.088 31.78C66.736 32.7773 66.3986 33.7453 66.076 34.684C65.7533 35.652 65.5333 36.6053 65.416 37.544C65.2986 38.512 65.4893 39.4947 65.988 40.492C66.164 40.9027 66.0906 41.196 65.768 41.372C65.064 41.8707 64.3453 42.12 63.612 42.12C62.908 42.1493 62.2626 42.0173 61.676 41.724C61.1186 41.4307 60.6493 41.02 60.268 40.492C59.916 39.9933 59.74 39.4507 59.74 38.864C59.74 38.16 59.9453 37.588 60.356 37.148C60.7666 36.708 61.2066 36.312 61.676 35.96C62.1746 35.608 62.6293 35.256 63.04 34.904C63.4506 34.5813 63.656 34.1707 63.656 33.672C63.656 33.0853 63.4506 32.66 63.04 32.396C62.6586 32.132 61.8373 32 60.576 32H26.256ZM76.0798 32.264C75.2291 32.2933 74.4371 32.1467 73.7038 31.824C72.9704 31.5013 72.3398 31.0613 71.8118 30.504C71.2838 29.9173 70.8584 29.2427 70.5358 28.48C70.2424 27.688 70.0958 26.852 70.0958 25.972C70.1251 24.916 70.1838 23.904 70.2718 22.936C70.3891 21.968 70.5064 21 70.6238 20.032C70.7411 19.064 70.8438 18.0667 70.9318 17.04C71.0491 15.984 71.1224 14.8547 71.1518 13.652C71.1811 12.5373 71.1371 11.3933 71.0198 10.22C70.9318 9.01733 70.7704 7.87333 70.5358 6.788C70.3304 5.67333 70.0224 4.64667 69.6118 3.708C69.2304 2.76933 68.7611 1.992 68.2038 1.376V1.288L76.6518 1.244C77.4438 1.244 78.0598 1.49333 78.4998 1.992C78.9691 2.49067 79.3064 3.10667 79.5118 3.84C79.7464 4.57333 79.8784 5.36533 79.9078 6.216C79.9664 7.03733 79.9958 7.8 79.9958 8.504C79.9371 10.2053 79.7758 11.8773 79.5118 13.52C79.2478 15.1627 78.9544 16.7467 78.6318 18.272C78.3091 19.768 78.0011 21.1907 77.7078 22.54C77.4144 23.86 77.2678 25.048 77.2678 26.104C77.2384 26.984 77.2824 27.6293 77.3998 28.04C77.5171 28.4213 77.7371 28.612 78.0598 28.612C78.4998 28.612 78.9251 28.172 79.3358 27.292C79.7464 26.412 80.0838 25.268 80.3478 23.86C80.4064 23.5373 80.4798 23.0533 80.5678 22.408C80.6851 21.7333 80.8171 20.9853 80.9638 20.164C81.1104 19.3133 81.2571 18.4333 81.4038 17.524C81.5798 16.5853 81.7411 15.676 81.8878 14.796C82.0344 13.8867 82.1518 13.0653 82.2398 12.332C82.3571 11.5693 82.4598 10.968 82.5478 10.528C83.1051 7.24267 83.9998 4.82267 85.2318 3.268C86.4931 1.71333 87.9598 0.921332 89.6318 0.891999C90.4238 0.891999 91.1718 1.05333 91.8758 1.376C92.5798 1.66933 93.1958 2.08 93.7238 2.608C94.2518 3.136 94.6478 3.76667 94.9118 4.5C95.2051 5.23333 95.3371 6.01067 95.3078 6.832C95.3078 7.888 95.2051 8.92933 94.9998 9.956C94.8238 10.9533 94.6184 11.9653 94.3838 12.992C94.1784 14.0187 93.9731 15.0747 93.7678 16.16C93.5918 17.2453 93.4891 18.3893 93.4598 19.592C93.4304 20.7067 93.5038 21.8653 93.6798 23.068C93.8558 24.2413 94.1051 25.3853 94.4278 26.5C94.7504 27.5853 95.1318 28.5973 95.5718 29.536C96.0411 30.4747 96.5691 31.2373 97.1558 31.824V31.912L88.7078 32C87.2998 32 86.2878 31.472 85.6718 30.416C85.0558 29.36 84.7771 27.732 84.8358 25.532C84.8651 23.5667 85.1584 21.8653 85.7158 20.428C86.2731 18.9613 86.8891 17.6413 87.5638 16.468C88.2678 15.2947 88.8984 14.1947 89.4558 13.168C90.0131 12.1413 90.2918 11.0707 90.2918 9.956C90.3211 9.076 90.1304 8.34267 89.7198 7.756C89.3091 7.16933 88.8104 6.876 88.2238 6.876C86.5518 6.876 85.1731 10.3227 84.0878 17.216L82.6358 26.192C82.3424 28.0987 81.5944 29.5947 80.3918 30.68C79.1891 31.736 77.7518 32.264 76.0798 32.264ZM97.6322 31.912C98.1602 30.9147 98.5416 29.6827 98.7762 28.216C99.0402 26.72 99.1722 24.828 99.1722 22.54V10.66C99.1722 8.372 99.0402 6.49467 98.7762 5.028C98.5416 3.532 98.1602 2.28533 97.6322 1.288V1.2H107.884C109.116 1.2 109.732 2.05066 109.732 3.752C109.732 4.77866 109.527 5.71733 109.116 6.568C108.706 7.38933 108.178 8.152 107.532 8.856C106.916 9.56 106.242 10.22 105.508 10.836C104.804 11.452 104.13 12.068 103.484 12.684C102.868 13.2707 102.355 13.9013 101.944 14.576C101.534 15.2213 101.328 15.9253 101.328 16.688C101.328 17.2747 101.534 17.788 101.944 18.228C102.355 18.6387 102.854 18.844 103.44 18.844C104.467 18.844 105.494 18.3453 106.52 17.348C107.547 16.3507 108.471 15.06 109.292 13.476C110.114 11.8627 110.774 10.0733 111.272 8.108C111.8 6.11333 112.064 4.148 112.064 2.212C112.064 1.53733 112.343 1.2 112.9 1.2H120.556C120.908 1.2 121.187 1.31733 121.392 1.552C121.627 1.78667 121.539 2.31467 121.128 3.136C119.867 5.6 118.254 7.99067 116.288 10.308C114.323 12.6253 112.108 14.884 109.644 17.084C109.058 17.5827 108.852 17.9787 109.028 18.272C109.204 18.5653 109.63 18.58 110.304 18.316L112.416 17.48C113.267 17.1573 114.059 17.1133 114.792 17.348C115.555 17.5827 116.142 18.0813 116.552 18.844L119.016 23.464C120.424 26.104 121.51 28.0693 122.272 29.36C123.064 30.6507 123.636 31.5013 123.988 31.912V32H116.2C115.086 32 114.147 31.7213 113.384 31.164C112.651 30.6067 111.991 29.7707 111.404 28.656C110.906 27.7467 110.392 26.808 109.864 25.84C109.336 24.872 108.808 24.0067 108.28 23.244C107.752 22.452 107.224 21.8067 106.696 21.308C106.198 20.8093 105.714 20.56 105.244 20.56C104.834 20.56 104.496 20.8093 104.232 21.308C103.968 21.8067 103.836 22.408 103.836 23.112C103.836 24.1387 104.232 25.1507 105.024 26.148C105.846 27.1453 107.122 28.392 108.852 29.888C109.527 30.4747 109.82 30.9733 109.732 31.384C109.644 31.7947 109.292 32 108.676 32H97.6322V31.912ZM133.339 31.912C133.867 30.9147 134.249 29.6827 134.483 28.216C134.747 26.72 134.879 24.828 134.879 22.54V10.66C134.879 8.372 134.747 6.49467 134.483 5.028C134.249 3.532 133.867 2.28533 133.339 1.288V1.2H146.759C148.167 1.2 149.458 1.376 150.631 1.728C151.805 2.08 152.802 2.57866 153.623 3.224C154.474 3.84 155.134 4.57333 155.603 5.424C156.073 6.27466 156.307 7.19867 156.307 8.196C156.307 9.31067 156.102 10.3373 155.691 11.276C155.31 12.2147 154.767 13.0213 154.063 13.696C153.389 14.3707 152.582 14.9133 151.643 15.324C150.705 15.7053 149.693 15.896 148.607 15.896C147.61 15.896 146.686 15.8373 145.835 15.72C145.014 15.5733 144.295 15.456 143.679 15.368C143.093 15.2507 142.623 15.192 142.271 15.192C141.919 15.192 141.729 15.324 141.699 15.588C141.67 15.852 141.729 16.0867 141.875 16.292C142.022 16.468 142.286 16.6293 142.667 16.776C143.078 16.8933 143.635 17.0107 144.339 17.128C145.043 17.216 145.938 17.3333 147.023 17.48C150.309 17.8907 152.787 18.6973 154.459 19.9C156.131 21.0733 156.967 22.672 156.967 24.696C156.967 25.7227 156.718 26.676 156.219 27.556C155.721 28.436 155.031 29.2133 154.151 29.888C153.271 30.5333 152.245 31.0467 151.071 31.428C149.898 31.8093 148.637 32 147.287 32H133.339V31.912ZM137.035 14.004C137.035 15.4707 137.329 16.908 137.915 18.316C138.502 19.724 139.265 20.9853 140.203 22.1C141.171 23.2147 142.242 24.1093 143.415 24.784C144.618 25.4587 145.821 25.796 147.023 25.796C147.698 25.796 148.241 25.6053 148.651 25.224C149.091 24.8427 149.311 24.344 149.311 23.728C149.311 23.2 149.135 22.7307 148.783 22.32C148.461 21.88 148.035 21.484 147.507 21.132C146.979 20.7507 146.363 20.4133 145.659 20.12C144.985 19.8267 144.295 19.548 143.591 19.284C142.917 19.0493 142.271 18.8147 141.655 18.58C141.039 18.3453 140.482 18.096 139.983 17.832C139.514 17.5387 139.133 17.216 138.839 16.864C138.546 16.512 138.399 16.1013 138.399 15.632C138.399 15.1333 138.575 14.7373 138.927 14.444C139.279 14.1213 139.749 13.8573 140.335 13.652C140.922 13.4467 141.567 13.2707 142.271 13.124C143.005 12.9773 143.753 12.816 144.515 12.64C145.19 12.464 145.835 12.2733 146.451 12.068C147.097 11.8333 147.654 11.584 148.123 11.32C148.622 11.0267 149.018 10.704 149.311 10.352C149.605 10 149.751 9.604 149.751 9.164C149.751 8.372 149.297 7.81467 148.387 7.492C147.507 7.16933 146.407 7.008 145.087 7.008C143.973 7.008 142.917 7.19867 141.919 7.58C140.951 7.932 140.101 8.43067 139.367 9.076C138.663 9.692 138.091 10.4253 137.651 11.276C137.241 12.1267 137.035 13.036 137.035 14.004ZM165.584 32.264C164.733 32.2933 163.941 32.1467 163.208 31.824C162.474 31.5013 161.844 31.0613 161.316 30.504C160.788 29.9173 160.362 29.2427 160.04 28.48C159.746 27.688 159.6 26.852 159.6 25.972C159.629 24.916 159.688 23.904 159.776 22.936C159.893 21.968 160.01 21 160.128 20.032C160.245 19.064 160.348 18.0667 160.436 17.04C160.553 15.984 160.626 14.8547 160.656 13.652C160.685 12.5373 160.641 11.3933 160.524 10.22C160.436 9.01733 160.274 7.87333 160.04 6.788C159.834 5.67333 159.526 4.64667 159.116 3.708C158.734 2.76933 158.265 1.992 157.708 1.376V1.288L166.156 1.244C166.948 1.244 167.564 1.49333 168.004 1.992C168.473 2.49067 168.81 3.10667 169.016 3.84C169.25 4.57333 169.382 5.36533 169.412 6.216C169.47 7.03733 169.5 7.8 169.5 8.504C169.441 10.2053 169.28 11.8773 169.016 13.52C168.752 15.1627 168.458 16.7467 168.136 18.272C167.813 19.768 167.505 21.1907 167.212 22.54C166.918 23.86 166.772 25.048 166.772 26.104C166.742 26.984 166.786 27.6293 166.904 28.04C167.021 28.4213 167.241 28.612 167.564 28.612C168.004 28.612 168.429 28.172 168.84 27.292C169.25 26.412 169.588 25.268 169.852 23.86C169.91 23.5373 169.984 23.0533 170.072 22.408C170.189 21.7333 170.321 20.9853 170.468 20.164C170.614 19.3133 170.761 18.4333 170.908 17.524C171.084 16.5853 171.245 15.676 171.392 14.796C171.538 13.8867 171.656 13.0653 171.744 12.332C171.861 11.5693 171.964 10.968 172.052 10.528C172.609 7.24267 173.504 4.82267 174.736 3.268C175.997 1.71333 177.464 0.921332 179.136 0.891999C179.928 0.891999 180.676 1.05333 181.38 1.376C182.084 1.66933 182.7 2.08 183.228 2.608C183.756 3.136 184.152 3.76667 184.416 4.5C184.709 5.23333 184.841 6.01067 184.812 6.832C184.812 7.888 184.709 8.92933 184.504 9.956C184.328 10.9533 184.122 11.9653 183.888 12.992C183.682 14.0187 183.477 15.0747 183.272 16.16C183.096 17.2453 182.993 18.3893 182.964 19.592C182.934 20.7067 183.008 21.8653 183.184 23.068C183.36 24.2413 183.609 25.3853 183.932 26.5C184.254 27.5853 184.636 28.5973 185.076 29.536C185.545 30.4747 186.073 31.2373 186.66 31.824V31.912L178.212 32C176.804 32 175.792 31.472 175.176 30.416C174.56 29.36 174.281 27.732 174.34 25.532C174.369 23.5667 174.662 21.8653 175.22 20.428C175.777 18.9613 176.393 17.6413 177.068 16.468C177.772 15.2947 178.402 14.1947 178.96 13.168C179.517 12.1413 179.796 11.0707 179.796 9.956C179.825 9.076 179.634 8.34267 179.224 7.756C178.813 7.16933 178.314 6.876 177.728 6.876C176.056 6.876 174.677 10.3227 173.592 17.216L172.14 26.192C171.846 28.0987 171.098 29.5947 169.896 30.68C168.693 31.736 167.256 32.264 165.584 32.264ZM189.6 25.356C189.6 24.2413 189.879 23.244 190.436 22.364C191.023 21.484 191.756 20.7067 192.636 20.032C193.516 19.3573 194.484 18.7853 195.54 18.316C196.596 17.8173 197.623 17.4067 198.62 17.084C199.617 16.732 200.512 16.4533 201.304 16.248C202.096 16.0427 202.668 15.896 203.02 15.808C203.284 15.72 203.475 15.6027 203.592 15.456C203.709 15.28 203.739 15.1187 203.68 14.972C203.651 14.8253 203.533 14.708 203.328 14.62C203.123 14.532 202.815 14.5027 202.404 14.532C200.908 14.6493 199.309 14.972 197.608 15.5C195.936 15.9987 194.308 16.6293 192.724 17.392C191.492 17.92 190.656 18.0667 190.216 17.832C189.776 17.5973 189.556 16.864 189.556 15.632V7.844C189.556 6.26 189.365 4.984 188.984 4.016C188.632 3.01867 188.016 2.124 187.136 1.332V1.2H198.268V1.332C197.388 2.124 196.757 3.01867 196.376 4.016C196.024 4.984 195.848 6.26 195.848 7.844V12.2C195.848 12.904 196.068 13.3 196.508 13.388C196.948 13.4467 197.476 13.4027 198.092 13.256C201.319 12.552 203.665 12.4053 205.132 12.816V7.844C205.132 6.26 204.941 4.984 204.56 4.016C204.208 3.01867 203.592 2.124 202.712 1.332V1.2H214.284V1.332C213.404 2.124 212.773 3.01867 212.392 4.016C212.04 4.984 211.864 6.26 211.864 7.844V25.356C211.864 26.94 212.04 28.2307 212.392 29.228C212.773 30.196 213.404 31.076 214.284 31.868V32H202.756V31.868C203.636 31.076 204.252 30.196 204.604 29.228C204.985 28.2307 205.176 26.94 205.176 25.356V17.172C204.853 17.3187 204.501 17.4507 204.12 17.568C202.888 17.9493 201.759 18.3747 200.732 18.844C199.735 19.3133 198.869 19.8413 198.136 20.428C197.403 21.0147 196.831 21.6893 196.42 22.452C196.039 23.2147 195.848 24.08 195.848 25.048V25.356C195.848 26.94 196.024 28.2307 196.376 29.228C196.757 30.196 197.388 31.076 198.268 31.868V32H187.18V31.868C188.06 31.076 188.676 30.196 189.028 29.228C189.409 28.2307 189.6 26.94 189.6 25.356ZM222.99 32.264C222.139 32.2933 221.347 32.1467 220.614 31.824C219.881 31.5013 219.25 31.0613 218.722 30.504C218.194 29.9173 217.769 29.2427 217.446 28.48C217.153 27.688 217.006 26.852 217.006 25.972C217.035 24.916 217.094 23.904 217.182 22.936C217.299 21.968 217.417 21 217.534 20.032C217.651 19.064 217.754 18.0667 217.842 17.04C217.959 15.984 218.033 14.8547 218.062 13.652C218.091 12.5373 218.047 11.3933 217.93 10.22C217.842 9.01733 217.681 7.87333 217.446 6.788C217.241 5.67333 216.933 4.64667 216.522 3.708C216.141 2.76933 215.671 1.992 215.114 1.376V1.288L223.562 1.244C224.354 1.244 224.97 1.49333 225.41 1.992C225.879 2.49067 226.217 3.10667 226.422 3.84C226.657 4.57333 226.789 5.36533 226.818 6.216C226.877 7.03733 226.906 7.8 226.906 8.504C226.847 10.2053 226.686 11.8773 226.422 13.52C226.158 15.1627 225.865 16.7467 225.542 18.272C225.219 19.768 224.911 21.1907 224.618 22.54C224.325 23.86 224.178 25.048 224.178 26.104C224.149 26.984 224.193 27.6293 224.31 28.04C224.427 28.4213 224.647 28.612 224.97 28.612C225.41 28.612 225.835 28.172 226.246 27.292C226.657 26.412 226.994 25.268 227.258 23.86C227.317 23.5373 227.39 23.0533 227.478 22.408C227.595 21.7333 227.727 20.9853 227.874 20.164C228.021 19.3133 228.167 18.4333 228.314 17.524C228.49 16.5853 228.651 15.676 228.798 14.796C228.945 13.8867 229.062 13.0653 229.15 12.332C229.267 11.5693 229.37 10.968 229.458 10.528C230.015 7.24267 230.91 4.82267 232.142 3.268C233.403 1.71333 234.87 0.921332 236.542 0.891999C237.334 0.891999 238.082 1.05333 238.786 1.376C239.49 1.66933 240.106 2.08 240.634 2.608C241.162 3.136 241.558 3.76667 241.822 4.5C242.115 5.23333 242.247 6.01067 242.218 6.832C242.218 7.888 242.115 8.92933 241.91 9.956C241.734 10.9533 241.529 11.9653 241.294 12.992C241.089 14.0187 240.883 15.0747 240.678 16.16C240.502 17.2453 240.399 18.3893 240.37 19.592C240.341 20.7067 240.414 21.8653 240.59 23.068C240.766 24.2413 241.015 25.3853 241.338 26.5C241.661 27.5853 242.042 28.5973 242.482 29.536C242.951 30.4747 243.479 31.2373 244.066 31.824V31.912L235.618 32C234.21 32 233.198 31.472 232.582 30.416C231.966 29.36 231.687 27.732 231.746 25.532C231.775 23.5667 232.069 21.8653 232.626 20.428C233.183 18.9613 233.799 17.6413 234.474 16.468C235.178 15.2947 235.809 14.1947 236.366 13.168C236.923 12.1413 237.202 11.0707 237.202 9.956C237.231 9.076 237.041 8.34267 236.63 7.756C236.219 7.16933 235.721 6.876 235.134 6.876C233.462 6.876 232.083 10.3227 230.998 17.216L229.546 26.192C229.253 28.0987 228.505 29.5947 227.302 30.68C226.099 31.736 224.662 32.264 222.99 32.264ZM267.994 24.52C268.317 26.5147 268.64 28.084 268.962 29.228C269.314 30.3427 269.71 31.2227 270.15 31.868V32H258.27V31.868C258.652 31.428 258.974 30.944 259.238 30.416C259.532 29.888 259.737 29.3013 259.854 28.656C260.001 27.9813 260.074 27.2187 260.074 26.368C260.074 25.5173 260.001 24.52 259.854 23.376L258.446 13.96C258.153 11.936 257.493 10.2787 256.466 8.988C255.469 7.668 254.222 7.008 252.726 7.008C251.876 7.008 251.172 7.30133 250.614 7.888C250.086 8.44533 249.778 9.14933 249.69 10C249.632 10.8213 249.764 11.6133 250.086 12.376C250.409 13.1387 250.82 13.9013 251.318 14.664C251.846 15.3973 252.404 16.1013 252.99 16.776C253.606 17.4507 254.164 18.228 254.662 19.108C255.161 19.9587 255.557 20.8973 255.85 21.924C256.144 22.9507 256.246 24.0653 256.158 25.268C256.1 26.06 255.85 26.9107 255.41 27.82C254.97 28.7 254.296 29.5067 253.386 30.24C252.506 30.944 251.362 31.4867 249.954 31.868C248.546 32.22 246.83 32.2787 244.806 32.044C244.073 31.9267 243.912 31.5453 244.322 30.9C244.85 30.196 245.334 29.3893 245.774 28.48C246.244 27.5413 246.654 26.5733 247.006 25.576C247.358 24.5493 247.652 23.508 247.886 22.452C248.121 21.3667 248.282 20.3253 248.37 19.328C248.458 18.1253 248.429 17.04 248.282 16.072C248.165 15.0747 248.018 14.0773 247.842 13.08C247.666 12.0827 247.505 11.1147 247.358 10.176C247.212 9.208 247.182 8.24 247.27 7.272C247.329 6.36266 247.637 5.54133 248.194 4.808C248.781 4.04533 249.544 3.4 250.482 2.872C251.45 2.344 252.58 1.93333 253.87 1.64C255.161 1.34666 256.569 1.21466 258.094 1.244H264.65L267.994 24.52ZM276.712 10.264C276.712 10.792 276.859 11.3347 277.152 11.892C277.475 12.4493 277.915 12.9773 278.472 13.476C279.029 13.9453 279.66 14.4 280.364 14.84C281.097 15.2507 281.889 15.588 282.74 15.852C283.297 16.0573 283.679 16.3067 283.884 16.6C284.119 16.8933 284.207 17.2013 284.148 17.524C284.119 17.8467 283.957 18.184 283.664 18.536C283.4 18.888 283.077 19.2107 282.696 19.504C282.139 19.9147 281.567 20.3547 280.98 20.824C280.423 21.2933 279.953 21.8067 279.572 22.364C279.22 22.892 279.015 23.4493 278.956 24.036C278.897 24.6227 279.103 25.2387 279.572 25.884C280.188 26.7347 280.833 27.116 281.508 27.028C282.183 26.94 282.813 26.632 283.4 26.104C284.016 25.5467 284.515 24.872 284.896 24.08C285.307 23.288 285.541 22.628 285.6 22.1V11.452C285.6 10.3373 285.38 9.41333 284.94 8.68C284.5 7.91733 283.943 7.34533 283.268 6.964C282.623 6.58267 281.919 6.37733 281.156 6.348C280.393 6.28933 279.675 6.40666 279 6.7C278.355 6.99333 277.812 7.448 277.372 8.064C276.932 8.65066 276.712 9.384 276.712 10.264ZM293.696 25.004C293.637 27.7613 294.591 29.6973 296.556 30.812C296.761 31.0173 296.864 31.2667 296.864 31.56C296.864 31.8533 296.688 32 296.336 32H283.092C282.74 32 282.579 31.868 282.608 31.604C282.667 31.34 282.799 31.1053 283.004 30.9C283.943 30.3427 284.632 29.5653 285.072 28.568C285.512 27.5413 285.717 26.3533 285.688 25.004C285.277 26.06 284.735 27.0573 284.06 27.996C283.385 28.9347 282.637 29.756 281.816 30.46C281.024 31.1347 280.159 31.6773 279.22 32.088C278.311 32.4987 277.416 32.704 276.536 32.704C275.597 32.704 274.717 32.5427 273.896 32.22C273.104 31.9267 272.415 31.516 271.828 30.988C271.241 30.4307 270.772 29.7853 270.42 29.052C270.068 28.2893 269.892 27.4827 269.892 26.632C269.892 25.664 270.141 24.784 270.64 23.992C271.139 23.2 271.784 22.496 272.576 21.88C273.397 21.264 274.321 20.736 275.348 20.296C276.404 19.856 277.475 19.4893 278.56 19.196C279.557 18.932 280.408 18.6973 281.112 18.492C281.845 18.2573 282.212 17.9787 282.212 17.656C282.212 17.5387 281.992 17.4067 281.552 17.26C281.112 17.084 280.555 16.8933 279.88 16.688C279.235 16.4533 278.516 16.1747 277.724 15.852C276.932 15.5 276.169 15.0747 275.436 14.576C274.732 14.0773 274.101 13.476 273.544 12.772C272.987 12.0387 272.635 11.188 272.488 10.22C272.312 9.10533 272.356 8.00533 272.62 6.92C272.913 5.83466 273.456 4.86666 274.248 4.016C275.04 3.136 276.081 2.432 277.372 1.904C278.692 1.376 280.276 1.112 282.124 1.112C285.967 1.112 288.856 2.24133 290.792 4.5C292.757 6.72933 293.725 9.94133 293.696 14.136V25.004Z" fill="#F28705"/>
</svg>
