<svg width="208" height="69" viewBox="0 0 208 69" fill="none" xmlns="http://www.w3.org/2000/svg">
<path d="M46.2878 68.576C42.6398 68.576 39.5038 67.392 36.8798 65.024C34.3198 62.656 32.7518 59.424 32.1758 55.328L29.2958 35.744C27.1198 20.704 24.2078 13.184 20.5598 13.184C19.2798 13.184 18.1918 13.856 17.2958 15.2C16.3998 16.48 15.9518 18.08 15.9518 20C15.9518 22.432 16.5278 24.768 17.6798 27.008C18.8958 29.184 20.2078 31.552 21.6158 34.112C23.0878 36.672 24.3998 39.552 25.5518 42.752C26.7678 45.888 27.3758 49.6 27.3758 53.888C27.3758 58.688 26.7038 62.24 25.3598 64.544C24.0158 66.848 21.8078 68 18.7358 68H0.30375V67.808C1.58375 66.464 2.73575 64.768 3.75975 62.72C4.78375 60.672 5.64775 58.464 6.35175 56.096C7.11975 53.664 7.69575 51.168 8.07975 48.608C8.52775 45.984 8.75175 43.456 8.75175 41.024C8.75175 38.4 8.55975 35.904 8.17575 33.536C7.79175 31.168 7.37575 28.864 6.92775 26.624C6.47975 24.384 6.06375 22.176 5.67975 20C5.29575 17.76 5.10375 15.488 5.10375 13.184C5.10375 11.392 5.42375 9.696 6.06375 8.096C6.70375 6.496 7.59975 5.12 8.75175 3.96799C9.90375 2.81599 11.2478 1.91999 12.7838 1.27999C14.3198 0.575996 15.9518 0.223997 17.6798 0.223997C21.3278 0.223997 24.4958 1.92 27.1838 5.31199C29.8718 8.704 31.7598 13.984 32.8478 21.152C32.9758 22.112 33.1358 23.424 33.3278 25.088C33.5838 26.688 33.8398 28.448 34.0958 30.368C34.4158 32.288 34.7358 34.272 35.0558 36.32C35.3758 38.304 35.6638 40.224 35.9198 42.08C36.2398 43.872 36.4958 45.504 36.6878 46.976C36.9438 48.384 37.1358 49.44 37.2638 50.144C37.7118 53.216 38.3518 55.712 39.1838 57.632C40.0798 59.552 41.0078 60.512 41.9678 60.512C42.6718 60.512 43.1518 60.096 43.4078 59.264C43.7278 58.368 43.8878 56.96 43.8878 55.04C43.8878 52.736 43.5998 50.144 43.0238 47.264C42.4478 44.32 41.8078 41.216 41.1038 37.952C40.4638 34.624 39.8558 31.168 39.2798 27.584C38.7678 24 38.5118 20.352 38.5118 16.64C38.5118 15.104 38.5758 13.44 38.7038 11.648C38.8318 9.792 39.1518 8.064 39.6638 6.464C40.1758 4.864 40.9118 3.52 41.8718 2.432C42.8958 1.344 44.2718 0.799995 45.9998 0.799995H64.4318V0.991999C63.1518 2.336 62.0638 4.032 61.1678 6.08C60.2718 8.128 59.5678 10.368 59.0558 12.8C58.5438 15.168 58.1598 17.664 57.9038 20.288C57.7118 22.848 57.6158 25.344 57.6158 27.776C57.6158 30.4 57.7118 32.864 57.9038 35.168C58.0958 37.408 58.2878 39.584 58.4798 41.696C58.7358 43.808 58.9598 45.92 59.1518 48.032C59.3438 50.144 59.4398 52.352 59.4398 54.656C59.4398 56.576 59.0878 58.4 58.3838 60.128C57.7438 61.792 56.8158 63.264 55.5998 64.544C54.4478 65.76 53.0718 66.752 51.4718 67.52C49.8718 68.224 48.1438 68.576 46.2878 68.576ZM82.8293 68C80.5893 68 78.5733 67.68 76.7812 67.04C74.9893 66.4 73.4533 65.536 72.1733 64.448C70.8933 63.296 69.9013 61.952 69.1973 60.416C68.4933 58.816 68.1413 57.088 68.1413 55.232C68.1413 50.752 70.1893 46.784 74.2853 43.328C78.3813 39.808 84.5893 36.672 92.9093 33.92C93.4853 33.728 93.9013 33.472 94.1573 33.152C94.4133 32.768 94.4773 32.416 94.3493 32.096C94.2853 31.776 93.9973 31.52 93.4853 31.328C93.0373 31.136 92.3973 31.072 91.5653 31.136C89.8373 31.264 87.5653 31.936 84.7493 33.152C81.9973 34.304 79.0853 35.744 76.0133 37.472C73.5173 38.944 71.7253 39.36 70.6373 38.72C69.6133 38.016 69.1013 36.32 69.1013 33.632V21.44C69.1013 16.448 68.8133 12.352 68.2373 9.152C67.7253 5.888 66.8933 3.168 65.7413 0.991999V0.799995H112.301V17.6C112.301 19.136 111.533 19.648 109.997 19.136C108.333 18.56 106.637 18.016 104.909 17.504C103.181 16.992 101.485 16.544 99.8213 16.16C98.2213 15.712 96.6853 15.392 95.2133 15.2C93.8053 14.944 92.6213 14.816 91.6613 14.816C89.6133 14.816 87.9493 15.296 86.6693 16.256C85.3893 17.152 84.7493 18.4 84.7493 20V23.264C84.7493 24.8 85.1013 25.856 85.8053 26.432C86.5093 26.944 87.3733 27.232 88.3973 27.296C89.4853 27.36 90.6693 27.296 91.9493 27.104C93.2293 26.912 94.4453 26.816 95.5973 26.816C97.4533 26.816 98.9573 27.232 100.109 28.064C101.261 28.896 101.837 30.016 101.837 31.424C101.837 32.704 101.389 33.792 100.493 34.688C99.5973 35.584 98.0613 36.512 95.8853 37.472C91.2133 39.456 87.9173 41.088 85.9973 42.368C84.1413 43.648 83.2133 44.928 83.2133 46.208C83.2133 46.912 83.4693 47.552 83.9813 48.128C84.5573 48.64 85.2933 49.12 86.1893 49.568C87.1493 49.952 88.2053 50.272 89.3573 50.528C90.5093 50.72 91.6933 50.816 92.9093 50.816C95.9813 50.816 98.9573 50.496 101.837 49.856C104.717 49.152 107.405 48.16 109.901 46.88C110.733 46.432 111.341 46.272 111.725 46.4C112.109 46.464 112.301 46.944 112.301 47.84V68H82.8293ZM195.042 48.128C194.338 50.496 193.73 52.672 193.218 54.656C192.706 56.576 192.322 58.336 192.066 59.936C191.81 61.536 191.714 62.976 191.778 64.256C191.906 65.536 192.258 66.72 192.834 67.808V68L162.978 67.904V67.712C164.13 65.536 164.482 62.88 164.034 59.744C163.65 56.544 162.914 52.544 161.826 47.744L159.81 38.912L157.506 47.936C156.29 52.736 155.426 56.704 154.914 59.84C154.402 62.976 154.722 65.632 155.874 67.808V68L128.898 67.904V67.712C130.05 65.536 130.402 62.88 129.954 59.744C129.57 56.544 128.834 52.544 127.746 47.744L121.602 20.96C120.514 16.16 119.202 12.192 117.666 9.056C116.194 5.856 114.882 3.168 113.73 0.991999V0.799995H136.866V0.991999C135.714 3.168 135.362 5.856 135.81 9.056C136.258 12.192 137.026 16.16 138.114 20.96L143.202 43.328C144.034 47.04 144.866 49.76 145.698 51.488C146.594 53.152 147.426 54.048 148.194 54.176C148.962 54.304 149.666 53.792 150.306 52.64C151.01 51.488 151.618 49.952 152.13 48.032L157.218 27.776L155.682 20.96C154.594 16.16 153.282 12.192 151.746 9.056C150.274 5.856 148.962 3.168 147.81 0.991999V0.799995H170.946V0.991999C169.794 3.168 169.442 5.856 169.89 9.056C170.338 12.192 171.106 16.16 172.194 20.96L177.282 43.328C178.114 47.04 179.074 49.728 180.162 51.392C181.314 53.056 182.434 53.952 183.522 54.08C184.674 54.208 185.73 53.696 186.69 52.544C187.714 51.392 188.514 49.888 189.09 48.032L192.93 34.784C193.442 32.992 193.538 31.616 193.218 30.656C192.962 29.632 192.066 28.832 190.53 28.256L186.114 26.528C180.034 24.096 176.994 20.32 176.994 15.2C176.994 13.024 177.474 11.008 178.434 9.152C179.458 7.296 180.866 5.728 182.658 4.44799C184.45 3.104 186.562 2.08 188.994 1.376C191.49 0.607998 194.21 0.223997 197.154 0.223997C197.794 0.223997 198.69 0.255997 199.842 0.319996C201.058 0.383995 202.21 0.511995 203.298 0.703997C204.386 0.831995 205.314 1.02399 206.082 1.27999C206.85 1.536 207.17 1.856 207.042 2.23999L202.434 20.288C202.114 21.376 201.474 21.664 200.514 21.152C198.338 20.192 196.13 19.424 193.89 18.848C191.714 18.272 189.634 17.984 187.65 17.984C186.05 17.984 185.25 18.432 185.25 19.328C185.25 20.16 185.89 20.832 187.17 21.344L195.522 24.32C199.234 25.536 200.514 28.224 199.362 32.384L195.042 48.128Z" fill="#F24405" fill-opacity="0.5"/>
</svg>
