<svg width="150" height="39" viewBox="0 0 150 39" fill="none" xmlns="http://www.w3.org/2000/svg">
<path d="M68.8295 28.824H70.6855V23.896H63.3895V28.824H65.2455V31H58.8775V28.824H60.9255V17.24H58.8775V15H65.2455V17.24H63.3895V21.592H70.6855V17.24H68.8295V15H75.2295V17.24H73.1815V28.824H75.2295V31H68.8295V28.824ZM91.3123 28.824V31H80.1763C79.0883 31 78.3629 30.7867 78.0003 30.36C77.6376 29.976 77.4563 29.2507 77.4563 28.184V27C77.4563 26.232 77.5523 25.7093 77.7443 25.432C78.0216 25.0267 78.6509 24.5253 79.6323 23.928L86.6723 19.544V17.176H80.4003V19.032H78.3523V15H86.3523C87.4403 15 88.1976 15.2347 88.6243 15.704C89.0723 16.1733 89.2963 16.856 89.2963 17.752V28.824H91.3123ZM86.6723 22.104L80.0163 26.264V28.824H86.6723V22.104ZM104.658 20.344C104.658 21.3253 104.284 22.0293 103.538 22.456C103.26 22.6053 102.93 22.6907 102.546 22.712C104.124 22.7547 104.914 23.4587 104.914 24.824V28.184C104.914 29.1013 104.796 29.72 104.562 30.04C104.114 30.68 103.324 31 102.194 31H94.1938V26.328H96.3378V28.824H102.45V23.8H98.0338V21.688H102.162V17.208H96.3378V19.672H94.1938V15H101.618C102.812 15 103.612 15.256 104.018 15.768C104.444 16.2587 104.658 16.952 104.658 17.848V20.344ZM121.156 28.824V31H110.02C108.932 31 108.207 30.7867 107.844 30.36C107.481 29.976 107.3 29.2507 107.3 28.184V27C107.3 26.232 107.396 25.7093 107.588 25.432C107.865 25.0267 108.495 24.5253 109.476 23.928L116.516 19.544V17.176H110.244V19.032H108.196V15H116.196C117.284 15 118.041 15.2347 118.468 15.704C118.916 16.1733 119.14 16.856 119.14 17.752V28.824H121.156ZM116.516 22.104L109.86 26.264V28.824H116.516V22.104ZM136.614 35.384V31H125.318V35.384H123.078V28.856H125.286L130.022 17.24H127.814V15H136.582V28.856H138.918V35.384H136.614ZM134.182 17.24H132.454L127.75 28.856H134.182V17.24Z" fill="#0D0D0D"/>
<path d="M1.23223 18.2322C0.255924 19.2085 0.255924 20.7915 1.23223 21.7678L17.1421 37.6777C18.1184 38.654 19.7014 38.654 20.6777 37.6777C21.654 36.7014 21.654 35.1184 20.6777 34.1421L6.53553 20L20.6777 5.85786C21.654 4.88155 21.654 3.29864 20.6777 2.32233C19.7014 1.34602 18.1184 1.34602 17.1421 2.32233L1.23223 18.2322ZM35 17.5L3 17.5L3 22.5L35 22.5L35 17.5Z" fill="#5A5A5A"/>
</svg>
