<svg width="226" height="35" viewBox="0 0 226 35" fill="none" xmlns="http://www.w3.org/2000/svg">
<path d="M9.072 33.904C9.648 32.816 10.064 31.472 10.32 29.872C10.608 28.24 10.752 26.176 10.752 23.68V4.336C10.752 3.792 10.656 3.44 10.464 3.28C10.304 3.12 10 3.072 9.552 3.136C9.04 3.232 8.448 3.552 7.776 4.096C7.104 4.64 6.416 5.344 5.712 6.208C5.008 7.072 4.304 8.064 3.6 9.184C2.928 10.272 2.304 11.44 1.728 12.688C1.568 13.072 1.312 13.2 0.96 13.072C0.64 12.912 0.48 12.608 0.48 12.16V0.399998H28.848V12.16C28.848 12.608 28.672 12.912 28.32 13.072C28 13.2 27.76 13.072 27.6 12.688C27.024 11.44 26.384 10.272 25.68 9.184C25.008 8.064 24.32 7.072 23.616 6.208C22.912 5.344 22.224 4.64 21.552 4.096C20.88 3.552 20.288 3.232 19.776 3.136C19.328 3.072 19.008 3.12 18.816 3.28C18.656 3.44 18.576 3.792 18.576 4.336V23.68C18.576 26.176 18.704 28.24 18.96 29.872C19.248 31.472 19.68 32.816 20.256 33.904V34H9.072V33.904ZM29.8204 33.904C30.3964 32.816 30.8124 31.472 31.0684 29.872C31.3564 28.24 31.5004 26.176 31.5004 23.68V10.72C31.5004 8.224 31.3564 6.176 31.0684 4.576C30.8124 2.944 30.3964 1.584 29.8204 0.495999V0.399998H44.4604C46.0924 0.399998 47.5804 0.639997 48.9244 1.12C50.3004 1.6 51.4844 2.272 52.4764 3.136C53.5004 4 54.2844 5.056 54.8284 6.304C55.4044 7.52 55.6924 8.88 55.6924 10.384C55.6924 12.272 55.3724 14.048 54.7324 15.712C54.1244 17.344 53.2764 18.768 52.1884 19.984C51.1324 21.2 49.8684 22.16 48.3964 22.864C46.9564 23.568 45.4044 23.92 43.7404 23.92C42.7484 23.92 41.7564 23.728 40.7644 23.344C39.8044 22.928 38.9404 22.336 38.1724 21.568C37.4364 20.8 36.8604 19.856 36.4444 18.736C36.0284 17.616 35.8844 16.336 36.0124 14.896C36.1084 13.968 36.4284 13.584 36.9724 13.744C38.6684 14.288 40.4604 14.704 42.3484 14.992C44.2684 15.28 46.0284 15.344 47.6284 15.184C49.2284 15.024 50.5404 14.608 51.5644 13.936C52.6204 13.264 53.1484 12.256 53.1484 10.912C53.1484 9.824 52.6204 8.976 51.5644 8.368C50.5404 7.728 49.2124 7.408 47.5804 7.408C45.5004 7.408 43.6124 7.616 41.9164 8.032C40.2524 8.448 38.8124 9.04 37.5964 9.808C36.4124 10.544 35.4844 11.424 34.8124 12.448C34.1724 13.472 33.8524 14.592 33.8524 15.808C33.8524 18.528 34.5244 21.232 35.8684 23.92C37.2124 26.576 39.2764 29.36 42.0604 32.272C42.3484 32.592 42.4924 32.96 42.4924 33.376C42.5244 33.792 42.2684 34 41.7244 34H29.8204V33.904ZM64.9928 34C63.8728 34 62.8648 33.84 61.9688 33.52C61.0728 33.2 60.3048 32.768 59.6648 32.224C59.0248 31.648 58.5288 30.976 58.1768 30.208C57.8248 29.408 57.6488 28.544 57.6488 27.616C57.6488 25.376 58.6728 23.392 60.7208 21.664C62.7688 19.904 65.8728 18.336 70.0328 16.96C70.3208 16.864 70.5288 16.736 70.6568 16.576C70.7848 16.384 70.8168 16.208 70.7528 16.048C70.7208 15.888 70.5768 15.76 70.3208 15.664C70.0968 15.568 69.7768 15.536 69.3608 15.568C68.4968 15.632 67.3608 15.968 65.9528 16.576C64.5768 17.152 63.1208 17.872 61.5848 18.736C60.3368 19.472 59.4408 19.68 58.8968 19.36C58.3848 19.008 58.1288 18.16 58.1288 16.816V10.72C58.1288 8.224 57.9848 6.176 57.6968 4.576C57.4408 2.944 57.0248 1.584 56.4488 0.495999V0.399998H79.7288V8.8C79.7288 9.568 79.3448 9.824 78.5768 9.568C77.7448 9.28 76.8968 9.008 76.0328 8.752C75.1688 8.496 74.3208 8.272 73.4888 8.08C72.6888 7.856 71.9208 7.696 71.1848 7.6C70.4808 7.472 69.8888 7.408 69.4088 7.408C68.3848 7.408 67.5528 7.648 66.9128 8.128C66.2728 8.576 65.9528 9.2 65.9528 10V11.632C65.9528 12.4 66.1288 12.928 66.4808 13.216C66.8328 13.472 67.2648 13.616 67.7768 13.648C68.3208 13.68 68.9128 13.648 69.5528 13.552C70.1928 13.456 70.8008 13.408 71.3768 13.408C72.3048 13.408 73.0568 13.616 73.6328 14.032C74.2088 14.448 74.4968 15.008 74.4968 15.712C74.4968 16.352 74.2728 16.896 73.8248 17.344C73.3768 17.792 72.6088 18.256 71.5208 18.736C69.1848 19.728 67.5368 20.544 66.5768 21.184C65.6488 21.824 65.1848 22.464 65.1848 23.104C65.1848 23.456 65.3128 23.776 65.5688 24.064C65.8568 24.32 66.2248 24.56 66.6728 24.784C67.1528 24.976 67.6808 25.136 68.2568 25.264C68.8328 25.36 69.4248 25.408 70.0328 25.408C71.5688 25.408 73.0568 25.248 74.4968 24.928C75.9368 24.576 77.2808 24.08 78.5288 23.44C78.9448 23.216 79.2488 23.136 79.4408 23.2C79.6328 23.232 79.7288 23.472 79.7288 23.92V34H64.9928ZM80.5391 33.904C81.1151 32.816 81.5311 31.472 81.7871 29.872C82.0751 28.24 82.2191 26.176 82.2191 23.68V10.72C82.2191 8.224 82.0751 6.176 81.7871 4.576C81.5311 2.944 81.1151 1.584 80.5391 0.495999V0.399998H91.7231C93.0671 0.399998 93.7391 1.328 93.7391 3.184C93.7391 4.304 93.5151 5.328 93.0671 6.256C92.6191 7.152 92.0431 7.984 91.3391 8.752C90.6671 9.52 89.9311 10.24 89.1311 10.912C88.3631 11.584 87.6271 12.256 86.9231 12.928C86.2511 13.568 85.6911 14.256 85.2431 14.992C84.7951 15.696 84.5711 16.464 84.5711 17.296C84.5711 17.936 84.7951 18.496 85.2431 18.976C85.6911 19.424 86.2351 19.648 86.8751 19.648C87.9951 19.648 89.1151 19.104 90.2351 18.016C91.3551 16.928 92.3631 15.52 93.2591 13.792C94.1551 12.032 94.8751 10.08 95.4191 7.936C95.9951 5.76 96.2831 3.616 96.2831 1.504C96.2831 0.767998 96.5871 0.399998 97.1951 0.399998H105.547C105.931 0.399998 106.235 0.527998 106.459 0.783998C106.715 1.04 106.619 1.616 106.171 2.512C104.795 5.2 103.035 7.808 100.891 10.336C98.7471 12.864 96.3311 15.328 93.6431 17.728C93.0031 18.272 92.7791 18.704 92.9711 19.024C93.1631 19.344 93.6271 19.36 94.3631 19.072L96.6671 18.16C97.5951 17.808 98.4591 17.76 99.2591 18.016C100.091 18.272 100.731 18.816 101.179 19.648L103.867 24.688C105.403 27.568 106.587 29.712 107.419 31.12C108.283 32.528 108.907 33.456 109.291 33.904V34H100.795C99.5791 34 98.5551 33.696 97.7231 33.088C96.9231 32.48 96.2031 31.568 95.5631 30.352C95.0191 29.36 94.4591 28.336 93.8831 27.28C93.3071 26.224 92.7311 25.28 92.1551 24.448C91.5791 23.584 91.0031 22.88 90.4271 22.336C89.8831 21.792 89.3551 21.52 88.8431 21.52C88.3951 21.52 88.0271 21.792 87.7391 22.336C87.4511 22.88 87.3071 23.536 87.3071 24.304C87.3071 25.424 87.7391 26.528 88.6031 27.616C89.4991 28.704 90.8911 30.064 92.7791 31.696C93.5151 32.336 93.8351 32.88 93.7391 33.328C93.6431 33.776 93.2591 34 92.5871 34H80.5391V33.904ZM135.467 25.84C135.819 28.016 136.171 29.728 136.523 30.976C136.907 32.192 137.339 33.152 137.819 33.856V34H124.859V33.856C125.275 33.376 125.627 32.848 125.915 32.272C126.235 31.696 126.459 31.056 126.587 30.352C126.747 29.616 126.827 28.784 126.827 27.856C126.827 26.928 126.747 25.84 126.587 24.592L125.051 14.32C124.731 12.112 124.011 10.304 122.891 8.896C121.803 7.456 120.443 6.736 118.811 6.736C117.883 6.736 117.115 7.056 116.507 7.696C115.931 8.304 115.595 9.072 115.499 10C115.435 10.896 115.579 11.76 115.931 12.592C116.283 13.424 116.731 14.256 117.275 15.088C117.851 15.888 118.459 16.656 119.099 17.392C119.771 18.128 120.379 18.976 120.923 19.936C121.467 20.864 121.899 21.888 122.219 23.008C122.539 24.128 122.651 25.344 122.555 26.656C122.491 27.52 122.219 28.448 121.739 29.44C121.259 30.4 120.523 31.28 119.531 32.08C118.571 32.848 117.323 33.44 115.787 33.856C114.251 34.24 112.379 34.304 110.171 34.048C109.371 33.92 109.195 33.504 109.643 32.8C110.219 32.032 110.747 31.152 111.227 30.16C111.739 29.136 112.187 28.08 112.571 26.992C112.955 25.872 113.275 24.736 113.531 23.584C113.787 22.4 113.963 21.264 114.059 20.176C114.155 18.864 114.123 17.68 113.963 16.624C113.835 15.536 113.675 14.448 113.483 13.36C113.291 12.272 113.115 11.216 112.955 10.192C112.795 9.136 112.763 8.08 112.859 7.024C112.923 6.032 113.259 5.136 113.867 4.336C114.507 3.504 115.339 2.8 116.363 2.224C117.419 1.648 118.651 1.2 120.059 0.879997C121.467 0.559998 123.003 0.415998 124.667 0.447997H131.819L135.467 25.84ZM146.465 34.288C145.537 34.32 144.673 34.16 143.873 33.808C143.073 33.456 142.385 32.976 141.809 32.368C141.233 31.728 140.769 30.992 140.417 30.16C140.097 29.296 139.937 28.384 139.937 27.424C139.969 26.272 140.033 25.168 140.129 24.112C140.257 23.056 140.385 22 140.513 20.944C140.641 19.888 140.753 18.8 140.849 17.68C140.977 16.528 141.057 15.296 141.089 13.984C141.121 12.768 141.073 11.52 140.945 10.24C140.849 8.928 140.673 7.68 140.417 6.496C140.193 5.28 139.857 4.16 139.409 3.136C138.993 2.112 138.481 1.264 137.873 0.591998V0.495999L147.089 0.447997C147.953 0.447997 148.625 0.719997 149.105 1.264C149.617 1.808 149.985 2.48 150.209 3.28C150.465 4.08 150.609 4.944 150.641 5.872C150.705 6.768 150.737 7.6 150.737 8.368C150.673 10.224 150.497 12.048 150.209 13.84C149.921 15.632 149.601 17.36 149.249 19.024C148.897 20.656 148.561 22.208 148.241 23.68C147.921 25.12 147.761 26.416 147.761 27.568C147.729 28.528 147.777 29.232 147.905 29.68C148.033 30.096 148.273 30.304 148.625 30.304C149.105 30.304 149.569 29.824 150.017 28.864C150.465 27.904 150.833 26.656 151.121 25.12C151.185 24.768 151.265 24.24 151.361 23.536C151.489 22.8 151.633 21.984 151.793 21.088C151.953 20.16 152.113 19.2 152.273 18.208C152.465 17.184 152.641 16.192 152.801 15.232C152.961 14.24 153.089 13.344 153.185 12.544C153.313 11.712 153.425 11.056 153.521 10.576C154.129 6.992 155.105 4.352 156.449 2.656C157.825 0.959998 159.425 0.0959988 161.249 0.0639992C162.113 0.0639992 162.929 0.239999 163.697 0.591998C164.465 0.911998 165.137 1.36 165.713 1.936C166.289 2.512 166.721 3.2 167.009 4C167.329 4.8 167.473 5.648 167.441 6.544C167.441 7.696 167.329 8.832 167.105 9.952C166.913 11.04 166.689 12.144 166.433 13.264C166.209 14.384 165.985 15.536 165.761 16.72C165.569 17.904 165.457 19.152 165.425 20.464C165.393 21.68 165.473 22.944 165.665 24.256C165.857 25.536 166.129 26.784 166.481 28C166.833 29.184 167.249 30.288 167.729 31.312C168.241 32.336 168.817 33.168 169.457 33.808V33.904L160.241 34C158.705 34 157.601 33.424 156.929 32.272C156.257 31.12 155.953 29.344 156.017 26.944C156.049 24.8 156.369 22.944 156.977 21.376C157.585 19.776 158.257 18.336 158.993 17.056C159.761 15.776 160.449 14.576 161.057 13.456C161.665 12.336 161.969 11.168 161.969 9.952C162.001 8.992 161.793 8.192 161.345 7.552C160.897 6.912 160.353 6.592 159.713 6.592C157.889 6.592 156.385 10.352 155.201 17.872L153.617 27.664C153.297 29.744 152.481 31.376 151.169 32.56C149.857 33.712 148.289 34.288 146.465 34.288ZM184.185 34.768C182.265 34.768 180.457 34.336 178.761 33.472C177.065 32.608 175.577 31.44 174.297 29.968C173.017 28.464 171.977 26.704 171.177 24.688C170.409 22.672 169.977 20.496 169.881 18.16C169.785 15.696 170.057 13.376 170.697 11.2C171.337 8.992 172.249 7.072 173.433 5.44C174.617 3.808 176.025 2.512 177.657 1.552C179.289 0.591998 181.049 0.111999 182.937 0.111999C183.993 0.111999 184.953 0.175999 185.817 0.303999C186.713 0.399998 187.593 0.495997 188.457 0.591998C189.321 0.687999 190.217 0.719999 191.145 0.688C192.073 0.655998 193.113 0.495997 194.265 0.207997C194.745 0.111999 195.081 0.287999 195.273 0.735999C195.657 1.888 195.833 2.96 195.801 3.952C195.769 4.912 195.561 5.76 195.177 6.496C194.793 7.2 194.233 7.76 193.497 8.176C192.761 8.592 191.865 8.8 190.809 8.8C189.689 8.8 188.601 8.672 187.545 8.416C186.521 8.16 185.529 7.824 184.569 7.408C183.641 6.992 182.729 6.528 181.833 6.016C180.969 5.472 180.137 4.944 179.337 4.432C178.793 4.08 178.249 4.048 177.705 4.336C177.161 4.592 176.665 5.072 176.217 5.776C175.801 6.48 175.449 7.36 175.161 8.416C174.873 9.472 174.729 10.608 174.729 11.824C174.729 14.032 175.017 16 175.593 17.728C176.201 19.456 177.033 20.928 178.089 22.144C179.177 23.36 180.457 24.288 181.929 24.928C183.401 25.568 185.017 25.888 186.777 25.888C189.785 25.888 192.297 24.816 194.313 22.672C194.505 22.448 194.745 22.416 195.033 22.576C195.321 22.736 195.465 23.184 195.465 23.92C195.465 25.456 195.177 26.88 194.601 28.192C194.025 29.504 193.225 30.656 192.201 31.648C191.177 32.608 189.977 33.376 188.601 33.952C187.225 34.496 185.753 34.768 184.185 34.768ZM205.385 33.904C205.961 32.816 206.377 31.472 206.633 29.872C206.921 28.24 207.065 26.176 207.065 23.68V4.336C207.065 3.792 206.969 3.44 206.777 3.28C206.617 3.12 206.313 3.072 205.865 3.136C205.353 3.232 204.761 3.552 204.089 4.096C203.417 4.64 202.729 5.344 202.025 6.208C201.321 7.072 200.617 8.064 199.913 9.184C199.241 10.272 198.617 11.44 198.041 12.688C197.881 13.072 197.625 13.2 197.273 13.072C196.953 12.912 196.793 12.608 196.793 12.16V0.399998H225.161V12.16C225.161 12.608 224.985 12.912 224.633 13.072C224.313 13.2 224.073 13.072 223.913 12.688C223.337 11.44 222.697 10.272 221.993 9.184C221.321 8.064 220.633 7.072 219.929 6.208C219.225 5.344 218.537 4.64 217.865 4.096C217.193 3.552 216.601 3.232 216.089 3.136C215.641 3.072 215.321 3.12 215.129 3.28C214.969 3.44 214.889 3.792 214.889 4.336V23.68C214.889 26.176 215.017 28.24 215.273 29.872C215.561 31.472 215.993 32.816 216.569 33.904V34H205.385V33.904Z" fill="#F24405" fill-opacity="0.5"/>
</svg>
