<svg width="183" height="1043" viewBox="0 0 183 1043" fill="none" xmlns="http://www.w3.org/2000/svg">
<path d="M4.498 0.29134C10.142 3.27934 17.114 5.43734 25.414 6.76534C33.88 8.25934 44.587 9.00634 57.535 9.00634L124.765 9.00634C137.713 9.00634 148.337 8.25934 156.637 6.76534C165.103 5.43734 172.158 3.27934 177.802 0.29134H178.3V58.3083C178.3 65.2803 173.486 68.7663 163.858 68.7663C158.048 68.7663 152.736 67.6043 147.922 65.2803C143.274 62.9563 138.958 59.9683 134.974 56.3163C130.99 52.8303 127.255 49.0123 123.769 44.8623C120.283 40.8783 116.797 37.0603 113.311 33.4083C109.991 29.9223 106.422 27.0173 102.604 24.6933C98.952 22.3693 94.968 21.2073 90.652 21.2073C87.332 21.2073 84.427 22.3693 81.937 24.6933C79.613 27.0173 78.451 29.8393 78.451 33.1593C78.451 38.9693 81.273 44.7793 86.917 50.5893C92.561 56.3993 99.865 61.6283 108.829 66.2763C117.959 70.9243 128.085 74.6593 139.207 77.4813C150.495 80.4693 161.617 81.9633 172.573 81.9633C176.391 81.9633 178.3 83.5403 178.3 86.6943L178.3 130.02C178.3 132.012 177.636 133.589 176.308 134.751C174.98 136.079 171.992 135.581 167.344 133.257C153.4 126.119 139.871 116.989 126.757 105.867C113.643 94.7453 100.861 82.2123 88.411 68.2683C85.589 64.9483 83.348 63.7863 81.688 64.7823C80.028 65.7783 79.945 68.1853 81.439 72.0033L86.17 83.9553C87.996 88.7693 88.245 93.2513 86.917 97.4013C85.589 101.717 82.767 105.037 78.451 107.361L52.306 121.305C37.366 129.273 26.244 135.415 18.94 139.731C11.636 144.213 6.822 147.45 4.498 149.442H4V105.369C4 99.0613 5.577 93.7493 8.731 89.4333C11.885 85.2833 16.616 81.5483 22.924 78.2283C28.07 75.4063 33.382 72.5013 38.86 69.5133C44.338 66.5253 49.235 63.5373 53.551 60.5493C58.033 57.5613 61.685 54.5733 64.507 51.5853C67.329 48.7633 68.74 46.0243 68.74 43.3683C68.74 41.0443 67.329 39.1353 64.507 37.6413C61.685 36.1473 58.282 35.4003 54.298 35.4003C48.488 35.4003 42.761 37.6413 37.117 42.1233C31.473 46.7713 24.418 53.9923 15.952 63.7863C12.632 67.6043 9.81 69.2643 7.486 68.7663C5.162 68.2683 4 66.2763 4 62.7903V0.29134H4.498ZM0.0159998 231.196C0.0159998 220.406 2.257 210.28 6.739 200.818C11.387 191.522 17.695 183.305 25.663 176.167C33.631 169.195 43.01 163.551 53.8 159.235C64.59 154.919 76.21 152.512 88.66 152.014C101.774 151.516 113.975 153.01 125.263 156.496C136.717 160.148 146.677 165.211 155.143 171.685C163.609 178.325 170.249 186.127 175.063 195.091C179.877 204.221 182.284 214.098 182.284 224.722C182.284 235.346 179.96 245.389 175.312 254.851C170.83 264.313 164.605 272.53 156.637 279.502C148.669 286.64 139.29 292.367 128.5 296.683C117.71 300.999 106.09 303.406 93.64 303.904C80.526 304.402 68.242 302.825 56.788 299.173C45.5 295.687 35.623 290.624 27.157 283.984C18.691 277.51 12.051 269.708 7.237 260.578C2.423 251.614 0.0159998 241.82 0.0159998 231.196ZM85.423 199.324C58.531 203.142 39.192 208.122 27.406 214.264C15.62 220.572 10.308 228.789 11.47 238.915C12.798 249.041 20.185 255.515 33.631 258.337C47.243 261.159 68.325 260.578 96.877 256.594C123.769 252.942 143.108 247.962 154.894 241.654C166.846 235.346 172.158 227.129 170.83 217.003C169.668 206.877 162.281 200.403 148.669 197.581C135.057 194.759 113.975 195.34 85.423 199.324ZM4.498 307.164C10.142 310.152 17.114 312.31 25.414 313.638C33.88 315.132 44.587 315.879 57.535 315.879L124.765 315.879C137.713 315.879 148.337 315.132 156.637 313.638C165.103 312.31 172.158 310.152 177.802 307.164H178.3V383.109C178.3 391.575 177.055 399.294 174.565 406.266C172.075 413.404 168.589 419.546 164.107 424.692C159.625 430.004 154.147 434.071 147.673 436.893C141.365 439.881 134.31 441.375 126.508 441.375C116.714 441.375 107.501 439.715 98.869 436.395C90.403 433.241 83.016 428.842 76.708 423.198C70.4 417.72 65.42 411.163 61.768 403.527C58.116 396.057 56.29 388.006 56.29 379.374C56.29 374.228 57.286 369.082 59.278 363.936C61.436 358.956 64.507 354.474 68.491 350.49C72.475 346.672 77.372 343.684 83.182 341.526C88.992 339.368 95.632 338.621 103.102 339.285C107.916 339.783 109.908 341.443 109.078 344.265C106.256 353.063 104.098 362.359 102.604 372.153C101.11 382.113 100.778 391.243 101.608 399.543C102.438 407.843 104.596 414.649 108.082 419.961C111.568 425.439 116.797 428.178 123.769 428.178C129.413 428.178 133.812 425.439 136.966 419.961C140.286 414.649 141.946 407.76 141.946 399.294C141.946 388.504 140.867 378.71 138.709 369.912C136.551 361.28 133.48 353.81 129.496 347.502C125.678 341.36 121.113 336.546 115.801 333.06C110.489 329.74 104.679 328.08 98.371 328.08C84.261 328.08 70.234 331.566 56.29 338.538C42.512 345.51 28.07 356.217 12.964 370.659C11.304 372.153 9.395 372.9 7.237 372.9C5.079 373.066 4 371.738 4 368.916V307.164H4.498ZM4 445.299H56.29C58.614 445.299 59.859 445.797 60.025 446.793C60.357 447.789 59.942 449.366 58.78 451.524C55.46 457.998 52.887 464.97 51.061 472.44C49.401 479.91 48.571 487.629 48.571 495.597C48.571 501.905 49.318 507.217 50.812 511.533C52.306 516.015 54.713 518.256 58.033 518.256C59.693 518.256 61.353 517.758 63.013 516.762C64.673 515.932 66.333 514.355 67.993 512.031C69.819 509.873 71.728 506.802 73.72 502.818C75.878 498.834 78.202 493.854 80.692 487.878C83.182 482.234 85.589 478.25 87.913 475.926C90.237 473.602 93.059 472.44 96.379 472.44C100.031 472.44 102.936 473.934 105.094 476.922C107.252 479.91 108.331 483.811 108.331 488.625C108.331 508.213 111.402 518.007 117.544 518.007C119.204 518.007 120.864 517.343 122.524 516.015C124.184 514.687 125.678 512.861 127.006 510.537C128.5 508.379 129.662 505.723 130.492 502.569C131.322 499.415 131.737 496.012 131.737 492.36C131.737 488.874 131.654 485.637 131.488 482.649C131.322 479.827 131.073 476.922 130.741 473.934C130.409 470.946 129.994 467.792 129.496 464.472C128.998 461.318 128.334 457.749 127.504 453.765C126.674 449.781 128.002 447.789 131.488 447.789H178.3L178.3 492.36C178.3 502.32 177.138 511.45 174.814 519.75C172.49 528.05 169.17 535.105 164.854 540.915C160.538 546.891 155.309 551.539 149.167 554.859C143.025 558.179 136.136 559.839 128.5 559.839C118.042 559.839 109.908 557.183 104.098 551.871C98.288 546.725 95.134 539.919 94.636 531.453C94.304 524.979 94.553 518.754 95.383 512.778C96.213 506.968 96.794 502.403 97.126 499.083C97.292 496.925 97.126 495.182 96.628 493.854C96.13 492.692 95.466 491.945 94.636 491.613C93.806 491.447 92.893 491.696 91.897 492.36C91.067 493.024 90.403 494.103 89.905 495.597C82.767 517.177 75.048 533.279 66.748 543.903C58.614 554.527 48.737 559.839 37.117 559.839C32.303 559.839 27.821 558.926 23.671 557.1C19.687 555.274 16.201 552.701 13.213 549.381C10.391 546.061 8.15 542.077 6.49 537.429C4.83 532.781 4 527.552 4 521.742V445.299ZM2.506 610.005C2.34 605.191 3.17 600.709 4.996 596.559C6.822 592.409 9.312 588.84 12.466 585.852C15.786 582.864 19.604 580.457 23.92 578.631C28.402 576.971 33.133 576.141 38.113 576.141C44.089 576.307 49.816 576.639 55.294 577.137C60.772 577.801 66.25 578.465 71.728 579.129C77.206 579.793 82.85 580.374 88.66 580.872C94.636 581.536 101.027 581.951 107.833 582.117C114.141 582.283 120.615 582.034 127.255 581.37C134.061 580.872 140.535 579.959 146.677 578.631C152.985 577.469 158.795 575.726 164.107 573.402C169.419 571.244 173.818 568.588 177.304 565.434H177.802L178.051 613.242C178.051 617.724 176.64 621.21 173.818 623.7C170.996 626.356 167.51 628.265 163.36 629.427C159.21 630.755 154.728 631.502 149.914 631.668C145.266 632 140.95 632.166 136.966 632.166C127.338 631.834 117.876 630.921 108.58 629.427C99.284 627.933 90.32 626.273 81.688 624.447C73.222 622.621 65.171 620.878 57.535 619.218C50.065 617.558 43.342 616.728 37.366 616.728C32.386 616.562 28.734 616.811 26.41 617.475C24.252 618.139 23.173 619.384 23.173 621.21C23.173 623.7 25.663 626.107 30.643 628.431C35.623 630.755 42.097 632.664 50.065 634.158C51.891 634.49 54.63 634.905 58.282 635.403C62.1 636.067 66.333 636.814 70.981 637.644C75.795 638.474 80.775 639.304 85.921 640.134C91.233 641.13 96.379 642.043 101.359 642.873C106.505 643.703 111.153 644.367 115.303 644.865C119.619 645.529 123.022 646.11 125.512 646.608C144.104 649.762 157.799 654.825 166.597 661.797C175.395 668.935 179.877 677.235 180.043 686.697C180.043 691.179 179.13 695.412 177.304 699.396C175.644 703.38 173.32 706.866 170.332 709.854C167.344 712.842 163.775 715.083 159.625 716.577C155.475 718.237 151.076 718.984 146.428 718.818C140.452 718.818 134.559 718.237 128.749 717.075C123.105 716.079 117.378 714.917 111.568 713.589C105.758 712.427 99.782 711.265 93.64 710.103C87.498 709.107 81.024 708.526 74.218 708.36C67.91 708.194 61.353 708.609 54.547 709.605C47.907 710.601 41.433 712.012 35.125 713.838C28.983 715.664 23.256 717.822 17.944 720.312C12.632 722.968 8.316 725.956 4.996 729.276H4.498L4 681.468C4 673.5 6.988 667.773 12.964 664.287C18.94 660.801 28.153 659.224 40.603 659.556C51.725 659.722 61.353 661.382 69.487 664.536C77.787 667.69 85.257 671.176 91.897 674.994C98.537 678.978 104.762 682.547 110.572 685.701C116.382 688.855 122.441 690.432 128.749 690.432C133.729 690.598 137.879 689.519 141.199 687.195C144.519 684.871 146.179 682.049 146.179 678.729C146.179 669.267 126.674 661.465 87.664 655.323L36.868 647.106C26.078 645.446 17.612 641.213 11.47 634.407C5.494 627.601 2.506 619.467 2.506 610.005ZM41.599 745.916C47.907 745.916 53.551 747.493 58.531 750.647C63.511 753.967 67.91 758.117 71.728 763.097C75.546 768.077 78.783 773.555 81.439 779.531C84.261 785.507 86.585 791.317 88.411 796.961C90.403 802.605 91.98 807.668 93.142 812.15C94.304 816.632 95.134 819.869 95.632 821.861C96.13 823.355 96.794 824.434 97.624 825.098C98.62 825.762 99.533 825.928 100.363 825.596C101.193 825.43 101.857 824.766 102.355 823.604C102.853 822.442 103.019 820.699 102.853 818.375C102.189 809.909 100.363 800.862 97.375 791.234C94.553 781.772 90.984 772.559 86.668 763.595C83.68 756.623 82.85 751.892 84.178 749.402C85.506 746.912 89.656 745.667 96.628 745.667H140.701C149.665 745.667 156.886 744.588 162.364 742.43C168.008 740.438 173.071 736.952 177.553 731.972H178.3L178.3 794.969H177.553C173.071 789.989 168.008 786.42 162.364 784.262C156.886 782.27 149.665 781.274 140.701 781.274H116.05C112.066 781.274 109.825 782.519 109.327 785.009C108.995 787.499 109.244 790.487 110.074 793.973C114.058 812.233 114.888 825.513 112.564 833.813H140.701C149.665 833.813 156.886 832.734 162.364 830.576C168.008 828.584 173.071 825.098 177.553 820.118H178.3L178.3 885.605H177.553C173.071 880.625 168.008 877.056 162.364 874.898C156.886 872.906 149.665 871.91 140.701 871.91H41.599C32.635 871.91 25.331 872.906 19.687 874.898C14.209 877.056 9.229 880.625 4.747 885.605H4V820.367H4.747C9.229 825.347 14.209 828.833 19.687 830.825C25.331 832.983 32.635 834.062 41.599 834.062H87.913C87.083 832.236 86.336 830.244 85.672 828.086C83.514 821.114 81.107 814.723 78.451 808.913C75.795 803.269 72.807 798.372 69.487 794.222C66.167 790.072 62.349 786.835 58.033 784.511C53.717 782.353 48.82 781.274 43.342 781.274H41.599C32.635 781.274 25.331 782.27 19.687 784.262C14.209 786.42 9.229 789.989 4.747 794.969H4L4 732.221H4.747C9.229 737.201 14.209 740.687 19.687 742.679C25.331 744.837 32.635 745.916 41.599 745.916ZM2.506 914.454C2.506 896.36 4.166 887.811 7.486 888.807L54.547 900.759C57.369 901.589 58.116 903.249 56.788 905.739C54.298 911.383 52.306 917.027 50.812 922.671C49.318 928.481 48.571 933.959 48.571 939.105C48.571 941.595 48.903 943.421 49.567 944.583C50.397 945.911 51.31 946.575 52.306 946.575C53.302 946.741 54.298 946.243 55.294 945.081C56.456 944.085 57.369 942.508 58.033 940.35L65.005 918.687C67.993 909.225 74.965 905.905 85.921 908.727L126.259 918.936C138.709 922.09 149.001 924.331 157.135 925.659C165.269 926.987 172.158 926.157 177.802 923.169H178.3L178.051 1003.1H177.553C171.909 1000.11 164.937 999.114 156.637 1000.11C148.503 1001.27 138.211 1003.26 125.761 1006.09L56.29 1022.02C43.84 1024.84 33.465 1028.16 25.165 1031.98C17.031 1035.97 10.142 1039.45 4.498 1042.44H4V979.941H4.498C10.142 982.929 17.031 983.842 25.165 982.68C33.465 981.518 43.84 979.526 56.29 976.704L114.307 963.507C123.935 961.349 130.907 958.776 135.223 955.788C139.705 952.8 142.112 949.812 142.444 946.824C142.776 943.836 141.448 941.097 138.46 938.607C135.472 936.117 131.488 934.208 126.508 932.88L92.146 924.165C87.332 922.837 83.68 922.754 81.19 923.916C78.7 925.078 76.708 927.651 75.214 931.635L70.732 943.089C69.072 947.405 67.329 951.14 65.503 954.294C63.843 957.614 61.851 960.353 59.527 962.511C57.369 964.835 54.796 966.495 51.808 967.491C48.82 968.653 45.334 969.234 41.35 969.234C35.54 969.234 30.228 967.823 25.414 965.001C20.766 962.179 16.699 958.278 13.213 953.298C9.893 948.318 7.237 942.508 5.245 935.868C3.419 929.228 2.506 922.09 2.506 914.454Z" fill="#F28705" fill-opacity="0.5"/>
</svg>
