<svg width="184" height="1004" viewBox="0 0 184 1004" fill="none" xmlns="http://www.w3.org/2000/svg">
<path d="M137.966 32.136C137.966 29.314 137.302 26.824 135.974 24.666C134.646 22.674 132.488 21.678 129.5 21.678C124.686 21.678 120.204 22.757 116.054 24.915C111.904 27.239 107.837 30.144 103.853 33.63C99.869 37.116 95.719 40.768 91.403 44.586C87.253 48.57 82.688 52.305 77.708 55.791C72.728 59.277 67.25 62.099 61.274 64.257C55.464 66.581 48.907 67.743 41.603 67.743C35.793 67.743 29.402 66.913 22.43 65.253C15.624 63.759 9.814 61.85 5 59.526L5 0.0149727H5.996C9.482 3.16897 13.798 6.07397 18.944 8.72997C24.09 11.552 29.734 13.876 35.876 15.702C42.184 17.694 48.658 19.188 55.298 20.184C61.938 21.346 68.495 21.927 74.969 21.927C81.775 21.927 88.249 20.848 94.391 18.69C100.699 16.532 106.924 14.125 113.066 11.469C119.208 8.97897 125.433 6.65497 131.741 4.49697C138.215 2.33897 145.187 1.25997 152.657 1.25997C161.787 1.25997 169.174 3.58397 174.818 8.23197C180.462 13.046 183.284 19.686 183.284 28.152C183.284 32.8 182.869 37.946 182.039 43.59C181.209 49.4 180.379 55.376 179.549 61.518C178.885 67.66 178.387 73.719 178.055 79.695C177.889 85.837 178.304 91.564 179.3 96.876C179.964 100.196 180.711 102.769 181.541 104.595C182.371 106.421 181.956 107.666 180.296 108.33C173.988 111.484 168.012 112.895 162.368 112.563C156.724 112.231 151.744 110.488 147.428 107.334C143.278 104.18 139.958 99.781 137.468 94.137C134.978 88.659 133.733 82.185 133.733 74.715C133.733 70.731 133.899 66.996 134.231 63.51C134.729 60.024 135.227 56.538 135.725 53.052C136.389 49.732 136.887 46.329 137.219 42.843C137.717 39.523 137.966 35.954 137.966 32.136ZM47.579 239.88C36.125 242.204 27.161 244.362 20.687 246.354C14.379 248.512 9.482 251.002 5.996 253.824H5L5 186.594H5.996C8.486 188.752 11.225 190.495 14.213 191.823C17.201 193.317 20.521 194.313 24.173 194.811C27.991 195.475 32.307 195.724 37.121 195.558C41.935 195.392 47.579 194.811 54.053 193.815L107.339 183.855C112.983 182.859 118.212 181.199 123.026 178.875C127.84 176.551 131.99 173.729 135.476 170.409C138.962 167.255 141.618 163.686 143.444 159.702C145.436 155.884 146.432 151.9 146.432 147.75C146.432 142.936 144.772 139.118 141.452 136.296C138.298 133.474 134.314 132.063 129.5 132.063C124.686 132.063 120.121 133.142 115.805 135.3C111.655 137.458 107.422 140.114 103.106 143.268C98.956 146.588 94.64 150.074 90.158 153.726C85.842 157.544 81.194 161.03 76.214 164.184C71.4 167.504 66.088 170.243 60.278 172.401C54.634 174.559 48.409 175.638 41.603 175.638C37.121 175.638 32.307 174.559 27.161 172.401C22.015 170.409 17.367 167.006 13.217 162.192C9.233 157.544 6.162 151.319 4.004 143.517C1.846 135.715 1.431 126.087 2.759 114.633C3.423 110.151 5.664 109.072 9.482 111.396C13.466 114.052 18.031 116.459 23.177 118.617C28.489 120.775 33.967 122.601 39.611 124.095C45.421 125.589 51.314 126.751 57.29 127.581C63.432 128.411 69.325 128.826 74.969 128.826C81.775 128.826 88.249 128.162 94.391 126.834C100.533 125.672 106.426 124.344 112.07 122.85C117.714 121.356 123.192 119.945 128.504 118.617C133.982 117.455 139.46 116.874 144.938 116.874C150.084 116.874 154.732 118.451 158.882 121.605C163.198 124.925 166.85 129.407 169.838 135.051C172.826 140.695 175.15 147.252 176.81 154.722C178.47 162.358 179.3 170.492 179.3 179.124V216.225L47.579 239.88ZM3.506 279.763C3.506 261.669 5.166 253.12 8.486 254.116L55.547 266.068C58.369 266.898 59.116 268.558 57.788 271.048C55.298 276.692 53.306 282.336 51.812 287.98C50.318 293.79 49.571 299.268 49.571 304.414C49.571 306.904 49.903 308.73 50.567 309.892C51.397 311.22 52.31 311.884 53.306 311.884C54.302 312.05 55.298 311.552 56.294 310.39C57.456 309.394 58.369 307.817 59.033 305.659L66.005 283.996C68.993 274.534 75.965 271.214 86.921 274.036L127.259 284.245C139.709 287.399 150.001 289.64 158.135 290.968C166.269 292.296 173.158 291.466 178.802 288.478H179.3L179.051 368.407H178.553C172.909 365.419 165.937 364.423 157.637 365.419C149.503 366.581 139.211 368.573 126.761 371.395L57.29 387.331C44.84 390.153 34.465 393.473 26.165 397.291C18.031 401.275 11.142 404.761 5.498 407.749H5L5 345.25H5.498C11.142 348.238 18.031 349.151 26.165 347.989C34.465 346.827 44.84 344.835 57.29 342.013L115.307 328.816C124.935 326.658 131.907 324.085 136.223 321.097C140.705 318.109 143.112 315.121 143.444 312.133C143.776 309.145 142.448 306.406 139.46 303.916C136.472 301.426 132.488 299.517 127.508 298.189L93.146 289.474C88.332 288.146 84.68 288.063 82.19 289.225C79.7 290.387 77.708 292.96 76.214 296.944L71.732 308.398C70.072 312.714 68.329 316.449 66.503 319.603C64.843 322.923 62.851 325.662 60.527 327.82C58.369 330.144 55.796 331.804 52.808 332.8C49.82 333.962 46.334 334.543 42.35 334.543C36.54 334.543 31.228 333.132 26.414 330.31C21.766 327.488 17.699 323.587 14.213 318.607C10.893 313.627 8.237 307.817 6.245 301.177C4.419 294.537 3.506 287.399 3.506 279.763ZM5.498 409.503C11.142 412.491 18.114 414.649 26.414 415.977C34.88 417.471 45.587 418.218 58.535 418.218L125.765 418.218C138.713 418.218 149.337 417.471 157.637 415.977C166.103 414.649 173.158 412.491 178.802 409.503H179.3L179.3 485.448C179.3 493.416 178.304 500.72 176.312 507.36C174.32 514 171.498 519.644 167.846 524.292C164.36 529.106 160.21 532.841 155.396 535.497C150.582 538.153 145.353 539.481 139.709 539.481C133.401 539.481 127.591 538.319 122.279 535.995C116.967 533.837 112.402 530.766 108.584 526.782C104.766 522.964 101.695 518.399 99.371 513.087C97.213 507.775 96.134 502.048 96.134 495.906C96.134 490.262 96.466 485.033 97.13 480.219C97.96 475.571 98.624 471.504 99.122 468.018C99.786 464.698 100.118 462.042 100.118 460.05C100.118 458.058 99.371 456.979 97.877 456.813C96.383 456.647 95.055 456.979 93.893 457.809C92.897 458.639 91.984 460.133 91.154 462.291C90.49 464.615 89.826 467.769 89.162 471.753C88.664 475.737 88 480.8 87.17 486.942C84.846 505.534 80.281 519.561 73.475 529.023C66.835 538.485 57.788 543.216 46.334 543.216C40.524 543.216 35.129 541.805 30.149 538.983C25.169 536.161 20.77 532.26 16.952 527.28C13.3 522.3 10.395 516.49 8.237 509.85C6.079 503.21 5 496.072 5 488.436V409.503H5.498ZM106.841 430.419C98.541 430.419 90.407 432.079 82.439 435.399C74.471 438.719 67.333 443.035 61.025 448.347C54.717 453.825 49.654 459.884 45.836 466.524C42.018 473.33 40.109 480.136 40.109 486.942C40.109 490.76 41.188 493.831 43.346 496.155C45.504 498.645 48.326 499.89 51.812 499.89C54.8 499.89 57.456 498.894 59.78 496.902C62.27 495.076 64.511 492.669 66.503 489.681C68.661 486.693 70.57 483.207 72.23 479.223C73.89 475.405 75.467 471.504 76.961 467.52C78.289 463.702 79.617 460.05 80.945 456.564C82.273 453.078 83.684 449.924 85.178 447.102C86.838 444.446 88.664 442.288 90.656 440.628C92.648 438.968 94.972 438.138 97.628 438.138C100.45 438.138 102.691 439.134 104.351 441.126C106.177 443.118 107.671 445.774 108.833 449.094C109.995 452.414 110.991 456.066 111.821 460.05C112.651 464.2 113.564 468.433 114.56 472.749C115.556 476.567 116.635 480.219 117.797 483.705C119.125 487.357 120.536 490.511 122.03 493.167C123.69 495.989 125.516 498.23 127.508 499.89C129.5 501.55 131.741 502.38 134.231 502.38C138.713 502.38 141.867 499.807 143.693 494.661C145.519 489.681 146.432 483.456 146.432 475.986C146.432 469.678 145.353 463.702 143.195 458.058C141.203 452.58 138.381 447.766 134.729 443.616C131.243 439.632 127.093 436.395 122.279 433.905C117.465 431.581 112.319 430.419 106.841 430.419ZM42.599 560.105C48.907 560.105 54.551 561.682 59.531 564.836C64.511 568.156 68.91 572.306 72.728 577.286C76.546 582.266 79.783 587.744 82.439 593.72C85.261 599.696 87.585 605.506 89.411 611.15C91.403 616.794 92.98 621.857 94.142 626.339C95.304 630.821 96.134 634.058 96.632 636.05C97.13 637.544 97.794 638.623 98.624 639.287C99.62 639.951 100.533 640.117 101.363 639.785C102.193 639.619 102.857 638.955 103.355 637.793C103.853 636.631 104.019 634.888 103.853 632.564C103.189 624.098 101.363 615.051 98.375 605.423C95.553 595.961 91.984 586.748 87.668 577.784C84.68 570.812 83.85 566.081 85.178 563.591C86.506 561.101 90.656 559.856 97.628 559.856H141.701C150.665 559.856 157.886 558.777 163.364 556.619C169.008 554.627 174.071 551.141 178.553 546.161H179.3V609.158H178.553C174.071 604.178 169.008 600.609 163.364 598.451C157.886 596.459 150.665 595.463 141.701 595.463H117.05C113.066 595.463 110.825 596.708 110.327 599.198C109.995 601.688 110.244 604.676 111.074 608.162C115.058 626.422 115.888 639.702 113.564 648.002H141.701C150.665 648.002 157.886 646.923 163.364 644.765C169.008 642.773 174.071 639.287 178.553 634.307H179.3V699.794H178.553C174.071 694.814 169.008 691.245 163.364 689.087C157.886 687.095 150.665 686.099 141.701 686.099H42.599C33.635 686.099 26.331 687.095 20.687 689.087C15.209 691.245 10.229 694.814 5.747 699.794H5V634.556H5.747C10.229 639.536 15.209 643.022 20.687 645.014C26.331 647.172 33.635 648.251 42.599 648.251H88.913C88.083 646.425 87.336 644.433 86.672 642.275C84.514 635.303 82.107 628.912 79.451 623.102C76.795 617.458 73.807 612.561 70.487 608.411C67.167 604.261 63.349 601.024 59.033 598.7C54.717 596.542 49.82 595.463 44.342 595.463H42.599C33.635 595.463 26.331 596.459 20.687 598.451C15.209 600.609 10.229 604.178 5.747 609.158H5V546.41H5.747C10.229 551.39 15.209 554.876 20.687 556.868C26.331 559.026 33.635 560.105 42.599 560.105ZM3.506 728.643C3.506 710.549 5.166 702 8.486 702.996L55.547 714.948C58.369 715.778 59.116 717.438 57.788 719.928C55.298 725.572 53.306 731.216 51.812 736.86C50.318 742.67 49.571 748.148 49.571 753.294C49.571 755.784 49.903 757.61 50.567 758.772C51.397 760.1 52.31 760.764 53.306 760.764C54.302 760.93 55.298 760.432 56.294 759.27C57.456 758.274 58.369 756.697 59.033 754.539L66.005 732.876C68.993 723.414 75.965 720.094 86.921 722.916L127.259 733.125C139.709 736.279 150.001 738.52 158.135 739.848C166.269 741.176 173.158 740.346 178.802 737.358H179.3L179.051 817.287H178.553C172.909 814.299 165.937 813.303 157.637 814.299C149.503 815.461 139.211 817.453 126.761 820.275L57.29 836.211C44.84 839.033 34.465 842.353 26.165 846.171C18.031 850.155 11.142 853.641 5.498 856.629H5V794.13H5.498C11.142 797.118 18.031 798.031 26.165 796.869C34.465 795.707 44.84 793.715 57.29 790.893L115.307 777.696C124.935 775.538 131.907 772.965 136.223 769.977C140.705 766.989 143.112 764.001 143.444 761.013C143.776 758.025 142.448 755.286 139.46 752.796C136.472 750.306 132.488 748.397 127.508 747.069L93.146 738.354C88.332 737.026 84.68 736.943 82.19 738.105C79.7 739.267 77.708 741.84 76.214 745.824L71.732 757.278C70.072 761.594 68.329 765.329 66.503 768.483C64.843 771.803 62.851 774.542 60.527 776.7C58.369 779.024 55.796 780.684 52.808 781.68C49.82 782.842 46.334 783.423 42.35 783.423C36.54 783.423 31.228 782.012 26.414 779.19C21.766 776.368 17.699 772.467 14.213 767.487C10.893 762.507 8.237 756.697 6.245 750.057C4.419 743.417 3.506 736.279 3.506 728.643ZM3.506 896.481C3.506 891.169 4.585 886.189 6.743 881.541C8.901 876.893 11.889 872.826 15.707 869.34C19.525 866.02 23.924 863.364 28.904 861.372C34.05 859.38 39.611 858.384 45.587 858.384C55.547 858.384 64.76 860.127 73.226 863.613C81.858 867.099 89.494 872.328 96.134 879.3C96.964 880.13 97.296 880.96 97.13 881.79C97.13 882.62 96.964 883.533 96.632 884.529C95.636 887.351 94.308 890.422 92.648 893.742C90.988 897.062 89.079 900.382 86.921 903.702C84.929 907.188 82.854 910.425 80.696 913.413C78.538 916.567 76.463 919.223 74.471 921.381C72.313 923.539 70.404 923.456 68.744 921.132C65.756 916.152 62.353 912.583 58.535 910.425C54.717 908.267 51.065 907.188 47.579 907.188C44.259 907.188 41.437 908.184 39.113 910.176C36.789 912.168 35.627 914.907 35.627 918.393C35.627 924.037 38.034 928.768 42.848 932.586C47.828 936.57 53.887 938.562 61.025 938.562C69.989 938.562 78.04 935.74 85.178 930.096C92.482 924.452 98.043 916.152 101.861 905.196C104.185 898.058 106.509 892.082 108.833 887.268C111.323 882.454 113.979 878.553 116.801 875.565C119.623 872.577 122.777 870.419 126.263 869.091C129.915 867.929 133.982 867.348 138.464 867.348C144.44 867.348 149.918 868.759 154.898 871.581C159.878 874.403 164.194 878.387 167.846 883.533C171.498 888.845 174.32 895.236 176.312 902.706C178.304 910.176 179.3 918.476 179.3 927.606V1003.55H178.802C173.158 1000.56 166.103 998.322 157.637 996.828C149.337 995.5 138.713 994.836 125.765 994.836H58.535C45.587 994.836 34.88 995.5 26.414 996.828C18.114 998.322 11.142 1000.56 5.498 1003.55H5V941.799C5 938.977 6.079 937.566 8.237 937.566C10.395 937.732 12.304 938.562 13.964 940.056C29.07 954.498 43.512 965.205 57.29 972.177C71.234 979.149 85.261 982.635 99.371 982.635C105.679 982.635 111.489 980.892 116.801 977.406C122.113 974.086 126.678 969.272 130.496 962.964C134.48 956.822 137.551 949.352 139.709 940.554C141.867 931.922 142.946 922.211 142.946 911.421C142.946 904.283 141.618 898.307 138.962 893.493C136.472 888.679 133.318 886.272 129.5 886.272C124.022 886.272 119.789 890.173 116.801 897.975C113.813 905.943 112.319 916.65 112.319 930.096C112.319 937.898 111.904 944.455 111.074 949.767C110.41 955.245 109.248 959.561 107.588 962.715C106.094 966.035 104.019 968.359 101.363 969.687C98.707 971.181 95.553 971.928 91.901 971.928C87.751 971.928 82.688 970.766 76.712 968.442C70.736 966.284 64.511 963.296 58.037 959.478C51.563 955.66 45.006 951.261 38.366 946.281C31.892 941.301 26.082 935.989 20.936 930.345C15.79 924.701 11.557 918.974 8.237 913.164C5.083 907.354 3.506 901.793 3.506 896.481Z" fill="#F28705" fill-opacity="0.5"/>
</svg>
