<svg width="184" height="1118" viewBox="0 0 184 1118" fill="none" xmlns="http://www.w3.org/2000/svg">
<path d="M179.3 142.905H178.802C173.656 139.253 166.435 136.266 157.139 133.942C148.009 131.618 137.717 129.875 126.263 128.712C114.975 127.551 103.189 126.97 90.905 126.97C78.621 126.97 66.918 127.551 55.796 128.712C44.674 129.875 34.631 131.535 25.667 133.692C16.703 135.85 9.98 138.506 5.498 141.66H5V78.1655C14.462 76.8375 22.762 76.6715 29.9 77.6675C37.204 78.6635 43.761 80.3235 49.571 82.6475C55.547 84.9715 61.025 87.6275 66.005 90.6155C70.985 93.6035 75.882 96.4255 80.696 99.0815C85.51 101.738 90.407 103.978 95.387 105.804C100.533 107.796 106.177 108.875 112.319 109.041C123.275 109.207 131.409 106.385 136.721 100.575C142.199 94.9315 144.855 85.3035 144.689 71.6915C144.855 58.0795 142.199 48.3685 136.721 42.5585C131.409 36.9145 123.275 34.1755 112.319 34.3415C106.177 34.3415 100.533 35.3375 95.387 37.3295C90.407 39.3215 85.51 41.6455 80.696 44.3015C75.882 46.9575 70.985 49.7795 66.005 52.7675C61.025 55.7555 55.547 58.4115 49.571 60.7355C43.761 63.0595 37.204 64.7195 29.9 65.7155C22.762 66.7115 14.462 66.5455 5 65.2175V1.72249H5.498C9.98 4.87649 16.703 7.53249 25.667 9.69049C34.631 11.8485 44.674 13.5085 55.796 14.6705C66.918 15.8325 78.621 16.4135 90.905 16.4135C103.189 16.4135 114.975 15.8325 126.263 14.6705C137.717 13.5085 148.009 11.7655 157.139 9.44149C166.435 7.11749 173.656 4.12949 178.802 0.477492H179.3L179.3 142.905ZM5.498 145.432C11.142 148.42 18.114 150.578 26.414 151.906C34.88 153.4 45.587 154.147 58.535 154.147H125.765C138.713 154.147 149.337 153.4 157.637 151.906C166.103 150.578 173.158 148.42 178.802 145.432H179.3L179.3 221.377C179.3 229.843 178.055 237.562 175.565 244.534C173.075 251.672 169.589 257.814 165.107 262.96C160.625 268.272 155.147 272.339 148.673 275.161C142.365 278.149 135.31 279.643 127.508 279.643C117.714 279.643 108.501 277.983 99.869 274.663C91.403 271.509 84.016 267.11 77.708 261.466C71.4 255.988 66.42 249.431 62.768 241.795C59.116 234.325 57.29 226.274 57.29 217.642C57.29 212.496 58.286 207.35 60.278 202.204C62.436 197.224 65.507 192.742 69.491 188.758C73.475 184.94 78.372 181.952 84.182 179.794C89.992 177.636 96.632 176.889 104.102 177.553C108.916 178.051 110.908 179.711 110.078 182.533C107.256 191.331 105.098 200.627 103.604 210.421C102.11 220.381 101.778 229.511 102.608 237.811C103.438 246.111 105.596 252.917 109.082 258.229C112.568 263.707 117.797 266.446 124.769 266.446C130.413 266.446 134.812 263.707 137.966 258.229C141.286 252.917 142.946 246.028 142.946 237.562C142.946 226.772 141.867 216.978 139.709 208.18C137.551 199.548 134.48 192.078 130.496 185.77C126.678 179.628 122.113 174.814 116.801 171.328C111.489 168.008 105.679 166.348 99.371 166.348C85.261 166.348 71.234 169.834 57.29 176.806C43.512 183.778 29.07 194.485 13.964 208.927C12.304 210.421 10.395 211.168 8.237 211.168C6.079 211.334 5 210.006 5 207.184V145.432H5.498ZM1.016 361.504C1.016 350.714 3.257 340.588 7.739 331.126C12.387 321.83 18.695 313.613 26.663 306.475C34.631 299.503 44.01 293.859 54.8 289.543C65.59 285.227 77.21 282.82 89.66 282.322C102.774 281.824 114.975 283.318 126.263 286.804C137.717 290.456 147.677 295.519 156.143 301.993C164.609 308.633 171.249 316.435 176.063 325.399C180.877 334.529 183.284 344.406 183.284 355.03C183.284 365.654 180.96 375.697 176.312 385.159C171.83 394.621 165.605 402.838 157.637 409.81C149.669 416.948 140.29 422.675 129.5 426.991C118.71 431.307 107.09 433.714 94.64 434.212C81.526 434.71 69.242 433.133 57.788 429.481C46.5 425.995 36.623 420.932 28.157 414.292C19.691 407.818 13.051 400.016 8.237 390.886C3.423 381.922 1.016 372.128 1.016 361.504ZM86.423 329.632C59.531 333.45 40.192 338.43 28.406 344.572C16.62 350.88 11.308 359.097 12.47 369.223C13.798 379.349 21.185 385.823 34.631 388.645C48.243 391.467 69.325 390.886 97.877 386.902C124.769 383.25 144.108 378.27 155.894 371.962C167.846 365.654 173.158 357.437 171.83 347.311C170.668 337.185 163.281 330.711 149.669 327.889C136.057 325.067 114.975 325.648 86.423 329.632ZM39.611 601.813C39.611 604.303 41.022 606.627 43.844 608.785C46.666 610.942 50.484 612.768 55.298 614.262C60.112 615.923 65.673 617.251 71.981 618.247C78.289 619.242 84.846 619.74 91.652 619.74C92.648 619.74 94.142 619.657 96.134 619.492C98.126 619.326 99.62 619.243 100.616 619.243C106.592 618.91 112.07 618.246 117.05 617.251C122.196 616.421 126.595 615.259 130.247 613.765C134.065 612.27 137.053 610.611 139.211 608.785C141.369 606.958 142.448 605.049 142.448 603.058C142.448 600.9 141.037 598.824 138.215 596.832C135.559 594.841 131.99 593.015 127.508 591.354C123.026 589.694 117.963 588.2 112.319 586.873C106.675 585.545 101.031 584.549 95.387 583.884C94.557 583.719 93.727 583.636 92.897 583.636C92.067 583.802 91.237 583.802 90.407 583.636C84.099 583.137 77.874 582.971 71.732 583.137C65.756 583.469 60.361 584.3 55.547 585.628C50.733 587.121 46.832 589.196 43.844 591.853C41.022 594.508 39.611 597.828 39.611 601.813ZM5 524.871C10.478 527.693 18.114 529.519 27.908 530.349C37.702 531.345 48.824 531.926 61.274 532.092C63.764 532.092 65.092 531.428 65.258 530.1C65.424 528.938 64.262 528.108 61.772 527.61C55.464 526.116 49.654 524.207 44.342 521.883C39.03 519.559 34.465 516.737 30.647 513.417C26.829 510.263 23.841 506.694 21.683 502.71C19.525 498.892 18.446 494.742 18.446 490.26C18.446 483.288 20.272 476.814 23.924 470.838C27.576 464.862 32.556 459.633 38.864 455.151C45.172 450.669 52.559 447.1 61.025 444.444C69.491 441.954 78.621 440.709 88.415 440.709H94.142C103.77 441.207 112.9 442.95 121.532 445.938C130.33 448.926 138.049 452.744 144.689 457.392C151.329 462.206 156.558 467.767 160.376 474.075C164.36 480.383 166.352 487.189 166.352 494.493C166.352 496.651 166.103 499.141 165.605 501.963C165.273 504.785 164.36 507.773 162.866 510.927C161.372 514.081 159.131 517.235 156.143 520.389C153.321 523.543 149.42 526.531 144.44 529.353C143.61 529.685 143.195 530.183 143.195 530.847C143.195 531.511 143.693 531.843 144.689 531.843C152.657 531.843 159.297 531.179 164.609 529.851C170.087 528.523 174.984 526.697 179.3 524.373L179.3 582.391H178.802C173.324 579.569 166.435 577.41 158.135 575.916C149.835 574.422 139.46 573.592 127.01 573.427C124.52 573.427 123.192 574.007 123.026 575.169C122.86 576.497 124.022 577.41 126.512 577.909C132.82 579.403 138.63 581.312 143.942 583.636C149.254 585.96 153.819 588.699 157.637 591.853C161.455 595.172 164.443 598.741 166.601 602.559C168.759 606.543 169.838 610.776 169.838 615.258C169.838 622.23 168.012 628.704 164.36 634.68C160.708 640.657 155.728 645.886 149.42 650.368C143.112 654.85 135.725 658.336 127.259 660.826C118.793 663.481 109.663 664.809 99.869 664.809H91.403C81.775 664.312 72.562 662.569 63.764 659.581C55.132 656.593 47.496 652.692 40.856 647.878C34.216 643.23 28.904 637.669 24.92 631.194C21.102 624.887 19.193 618.164 19.193 611.026C19.193 608.868 19.359 606.295 19.691 603.307C20.189 600.484 21.185 597.496 22.679 594.342C24.173 591.354 26.331 588.283 29.153 585.129C32.141 581.975 36.125 578.987 41.105 576.165C41.935 575.833 42.35 575.336 42.35 574.671C42.35 574.007 41.852 573.675 40.856 573.675C32.888 573.675 26.082 574.505 20.438 576.165C14.794 577.992 9.814 580.067 5.498 582.391H5L5 524.871ZM145.934 503.706C145.934 501.216 144.523 498.892 141.701 496.734C138.879 494.576 135.061 492.667 130.247 491.007C125.433 489.513 119.872 488.268 113.564 487.272C107.256 486.276 100.699 485.778 93.893 485.778C92.897 485.778 91.818 485.861 90.656 486.027C89.66 486.193 88.664 486.276 87.668 486.276C81.692 486.442 76.131 487.023 70.985 488.019C66.005 489.015 61.606 490.26 57.788 491.754C54.136 493.248 51.231 494.908 49.073 496.734C46.915 498.56 45.836 500.469 45.836 502.461C45.836 505.283 47.33 507.856 50.318 510.18C53.472 512.67 57.373 514.828 62.021 516.654C66.835 518.48 72.147 519.891 77.957 520.887C83.767 522.049 89.494 522.713 95.138 522.879C101.446 523.377 107.588 523.377 113.564 522.879C119.706 522.547 125.184 521.634 129.998 520.14C134.812 518.646 138.63 516.488 141.452 513.666C144.44 511.01 145.934 507.69 145.934 503.706ZM3.506 717.942C3.34 713.128 4.17 708.646 5.996 704.496C7.822 700.346 10.312 696.777 13.466 693.789C16.786 690.801 20.604 688.394 24.92 686.568C29.402 684.908 34.133 684.078 39.113 684.078C45.089 684.244 50.816 684.576 56.294 685.074C61.772 685.738 67.25 686.402 72.728 687.066C78.206 687.73 83.85 688.311 89.66 688.809C95.636 689.473 102.027 689.888 108.833 690.054C115.141 690.22 121.615 689.971 128.255 689.307C135.061 688.809 141.535 687.896 147.677 686.568C153.985 685.406 159.795 683.663 165.107 681.339C170.419 679.181 174.818 676.525 178.304 673.371H178.802L179.051 721.179C179.051 725.661 177.64 729.147 174.818 731.637C171.996 734.293 168.51 736.202 164.36 737.364C160.21 738.692 155.728 739.439 150.914 739.605C146.266 739.937 141.95 740.103 137.966 740.103C128.338 739.771 118.876 738.858 109.58 737.364C100.284 735.87 91.32 734.21 82.688 732.384C74.222 730.558 66.171 728.815 58.535 727.155C51.065 725.495 44.342 724.665 38.366 724.665C33.386 724.499 29.734 724.748 27.41 725.412C25.252 726.076 24.173 727.321 24.173 729.147C24.173 731.637 26.663 734.044 31.643 736.368C36.623 738.692 43.097 740.601 51.065 742.095C52.891 742.427 55.63 742.842 59.282 743.34C63.1 744.004 67.333 744.751 71.981 745.581C76.795 746.411 81.775 747.241 86.921 748.071C92.233 749.067 97.379 749.98 102.359 750.81C107.505 751.64 112.153 752.304 116.303 752.802C120.619 753.466 124.022 754.047 126.512 754.545C145.104 757.699 158.799 762.762 167.597 769.734C176.395 776.872 180.877 785.172 181.043 794.634C181.043 799.116 180.13 803.349 178.304 807.333C176.644 811.317 174.32 814.803 171.332 817.791C168.344 820.779 164.775 823.02 160.625 824.514C156.475 826.174 152.076 826.921 147.428 826.755C141.452 826.755 135.559 826.174 129.749 825.012C124.105 824.016 118.378 822.854 112.568 821.526C106.758 820.364 100.782 819.202 94.64 818.04C88.498 817.044 82.024 816.463 75.218 816.297C68.91 816.131 62.353 816.546 55.547 817.542C48.907 818.538 42.433 819.949 36.125 821.775C29.983 823.601 24.256 825.759 18.944 828.249C13.632 830.905 9.316 833.893 5.996 837.213H5.498L5 789.405C5 781.437 7.988 775.71 13.964 772.224C19.94 768.738 29.153 767.161 41.603 767.493C52.725 767.659 62.353 769.319 70.487 772.473C78.787 775.627 86.257 779.113 92.897 782.931C99.537 786.915 105.762 790.484 111.572 793.638C117.382 796.792 123.441 798.369 129.749 798.369C134.729 798.535 138.879 797.456 142.199 795.132C145.519 792.808 147.179 789.986 147.179 786.666C147.179 777.204 127.674 769.402 88.664 763.26L37.868 755.043C27.078 753.383 18.612 749.15 12.47 742.344C6.494 735.538 3.506 727.404 3.506 717.942ZM47.579 968.891C36.125 971.215 27.161 973.373 20.687 975.365C14.379 977.523 9.482 980.013 5.996 982.835H5V915.605H5.996C8.486 917.763 11.225 919.506 14.213 920.834C17.201 922.328 20.521 923.324 24.173 923.822C27.991 924.486 32.307 924.735 37.121 924.569C41.935 924.403 47.579 923.822 54.053 922.826L107.339 912.866C112.983 911.87 118.212 910.21 123.026 907.886C127.84 905.562 131.99 902.74 135.476 899.42C138.962 896.266 141.618 892.697 143.444 888.713C145.436 884.895 146.432 880.911 146.432 876.761C146.432 871.947 144.772 868.129 141.452 865.307C138.298 862.485 134.314 861.074 129.5 861.074C124.686 861.074 120.121 862.153 115.805 864.311C111.655 866.469 107.422 869.125 103.106 872.279C98.956 875.599 94.64 879.085 90.158 882.737C85.842 886.555 81.194 890.041 76.214 893.195C71.4 896.515 66.088 899.254 60.278 901.412C54.634 903.57 48.409 904.649 41.603 904.649C37.121 904.649 32.307 903.57 27.161 901.412C22.015 899.42 17.367 896.017 13.217 891.203C9.233 886.555 6.162 880.33 4.004 872.528C1.846 864.726 1.431 855.098 2.759 843.644C3.423 839.162 5.664 838.083 9.482 840.407C13.466 843.063 18.031 845.47 23.177 847.628C28.489 849.786 33.967 851.612 39.611 853.106C45.421 854.6 51.314 855.762 57.29 856.592C63.432 857.422 69.325 857.837 74.969 857.837C81.775 857.837 88.249 857.173 94.391 855.845C100.533 854.683 106.426 853.355 112.07 851.861C117.714 850.367 123.192 848.956 128.504 847.628C133.982 846.466 139.46 845.885 144.938 845.885C150.084 845.885 154.732 847.462 158.882 850.616C163.198 853.936 166.85 858.418 169.838 864.062C172.826 869.706 175.15 876.263 176.81 883.733C178.47 891.369 179.3 899.503 179.3 908.135V945.236L47.579 968.891ZM179.3 983.376V1045.13C179.3 1047.95 178.221 1049.28 176.063 1049.11C173.905 1049.11 171.996 1048.36 170.336 1046.87C155.23 1032.26 140.705 1021.47 126.761 1014.5C112.983 1007.69 99.039 1004.29 84.929 1004.29C78.621 1004.29 72.811 1005.95 67.499 1009.27C62.187 1012.76 57.539 1017.57 53.555 1023.71C49.737 1030.02 46.749 1037.49 44.591 1046.12C42.433 1054.92 41.354 1064.72 41.354 1075.51C41.354 1083.97 42.931 1090.86 46.085 1096.17C49.405 1101.65 53.887 1104.39 59.531 1104.39C66.503 1104.39 71.732 1101.65 75.218 1096.17C78.704 1090.86 80.862 1084.05 81.692 1075.75C82.522 1067.45 82.19 1058.32 80.696 1048.36C79.202 1038.57 77.044 1029.27 74.222 1020.48C73.392 1017.65 75.384 1015.99 80.198 1015.5C87.668 1014.83 94.308 1015.58 100.118 1017.74C105.928 1019.9 110.825 1022.88 114.809 1026.7C118.793 1030.69 121.781 1035.17 123.773 1040.15C125.931 1045.29 127.01 1050.44 127.01 1055.59C127.01 1064.22 125.184 1072.27 121.532 1079.74C117.88 1087.37 112.9 1093.93 106.592 1099.41C100.284 1105.05 92.814 1109.45 84.182 1112.61C75.716 1115.93 66.586 1117.59 56.792 1117.59C48.99 1117.59 41.852 1116.09 35.378 1113.1C29.07 1110.28 23.675 1106.22 19.193 1100.9C14.711 1095.76 11.225 1089.62 8.735 1082.48C6.245 1075.51 5 1067.79 5 1059.32V983.376H5.498C11.142 986.364 18.114 988.522 26.414 989.85C34.88 991.344 45.587 992.091 58.535 992.091H125.765C138.713 992.091 149.337 991.344 157.637 989.85C166.103 988.522 173.158 986.364 178.802 983.376H179.3Z" fill="#F28705" fill-opacity="0.5"/>
</svg>
