<svg width="235" height="71" viewBox="0 0 235 71" fill="none" xmlns="http://www.w3.org/2000/svg">
<path d="M23.192 70.44C21.528 70.44 19.704 70.28 17.72 69.96C15.736 69.64 13.752 69.192 11.768 68.616C9.784 68.04 7.832 67.368 5.912 66.6C4.056 65.832 2.392 65.032 0.92 64.2V43.272C0.92 41.48 1.688 41.256 3.224 42.6C5.592 44.712 8.216 46.792 11.096 48.84C13.976 50.888 16.952 52.712 20.024 54.312C23.096 55.912 26.136 57.224 29.144 58.248C32.216 59.208 35.064 59.688 37.688 59.688C38.648 59.688 39.448 59.4 40.088 58.824C40.728 58.248 41.048 57.544 41.048 56.712C41.048 54.792 39.352 52.904 35.96 51.048L11.768 37.992C8.12 36.072 5.432 33.736 3.704 30.984C1.976 28.168 1.048 24.648 0.92 20.424C0.792 17.736 1.272 15.24 2.36 12.936C3.512 10.568 5.08 8.52 7.064 6.792C9.112 5.064 11.512 3.72 14.264 2.75999C17.08 1.736 20.088 1.224 23.288 1.224C25.4 1.224 27.32 1.352 29.048 1.608C30.84 1.8 32.6 1.99199 34.328 2.184C36.056 2.376 37.848 2.44 39.704 2.376C41.56 2.312 43.64 1.99199 45.944 1.41599C46.904 1.224 47.576 1.576 47.96 2.472C48.728 4.776 49.08 6.92 49.016 8.904C48.952 10.824 48.536 12.52 47.768 13.992C47 15.4 45.88 16.52 44.408 17.352C42.936 18.184 41.144 18.6 39.032 18.6C36.792 18.6 34.616 18.344 32.504 17.832C30.456 17.256 28.472 16.552 26.552 15.72C24.696 14.824 22.872 13.864 21.08 12.84C19.352 11.816 17.688 10.824 16.088 9.86399C15.384 9.416 14.52 9.16 13.496 9.096C12.536 8.968 11.608 9.064 10.712 9.384C9.816 9.64 9.048 10.152 8.408 10.92C7.832 11.624 7.544 12.552 7.544 13.704C7.544 15.88 9.24 17.736 12.632 19.272L38.456 31.176C41.72 32.648 44.312 34.952 46.232 38.088C48.152 41.16 49.112 44.808 49.112 49.032C49.112 52.04 48.44 54.856 47.096 57.48C45.752 60.04 43.896 62.28 41.528 64.2C39.224 66.12 36.504 67.656 33.368 68.808C30.232 69.896 26.84 70.44 23.192 70.44ZM81.1955 70.536C77.0355 70.536 73.1315 69.672 69.4835 67.944C65.8995 66.152 62.7315 63.72 59.9795 60.648C57.2915 57.576 55.1155 53.96 53.4515 49.8C51.7875 45.64 50.8595 41.16 50.6675 36.36C50.4755 31.304 51.0515 26.6 52.3955 22.248C53.8035 17.832 55.7555 13.992 58.2515 10.728C60.8115 7.46399 63.8195 4.904 67.2755 3.048C70.7955 1.192 74.6035 0.263998 78.6995 0.263998C82.7955 0.263998 86.6675 1.16 90.3155 2.952C93.9635 4.68 97.1315 7.08 99.8195 10.152C102.572 13.224 104.78 16.84 106.444 21C108.108 25.16 109.036 29.64 109.228 34.44C109.42 39.496 108.812 44.232 107.404 48.648C106.06 53 104.108 56.808 101.548 60.072C99.0515 63.336 96.0435 65.896 92.5235 67.752C89.0675 69.608 85.2915 70.536 81.1955 70.536ZM68.9075 37.608C70.3795 47.976 72.2995 55.432 74.6675 59.976C77.0995 64.52 80.2675 66.568 84.1715 66.12C88.0755 65.608 90.5715 62.76 91.6595 57.576C92.7475 52.328 92.5235 44.2 90.9875 33.192C89.5795 22.824 87.6595 15.368 85.2275 10.824C82.7955 6.216 79.6275 4.168 75.7235 4.68C71.8195 5.128 69.3235 7.976 68.2355 13.224C67.1475 18.472 67.3715 26.6 68.9075 37.608ZM140.821 70.536C136.661 70.536 132.757 69.672 129.109 67.944C125.525 66.152 122.357 63.72 119.605 60.648C116.917 57.576 114.741 53.96 113.077 49.8C111.413 45.64 110.485 41.16 110.293 36.36C110.101 31.304 110.677 26.6 112.021 22.248C113.429 17.832 115.381 13.992 117.877 10.728C120.437 7.46399 123.445 4.904 126.901 3.048C130.421 1.192 134.229 0.263998 138.325 0.263998C142.421 0.263998 146.293 1.16 149.941 2.952C153.589 4.68 156.757 7.08 159.445 10.152C162.197 13.224 164.405 16.84 166.069 21C167.733 25.16 168.661 29.64 168.853 34.44C169.045 39.496 168.437 44.232 167.029 48.648C165.685 53 163.733 56.808 161.173 60.072C158.677 63.336 155.669 65.896 152.149 67.752C148.693 69.608 144.917 70.536 140.821 70.536ZM128.533 37.608C130.005 47.976 131.925 55.432 134.293 59.976C136.725 64.52 139.893 66.568 143.797 66.12C147.701 65.608 150.197 62.76 151.285 57.576C152.373 52.328 152.149 44.2 150.613 33.192C149.205 22.824 147.285 15.368 144.853 10.824C142.421 6.216 139.253 4.168 135.349 4.68C131.445 5.128 128.949 7.976 127.861 13.224C126.773 18.472 126.997 26.6 128.533 37.608ZM216.382 69.576C212.734 69.576 209.598 68.392 206.974 66.024C204.414 63.656 202.846 60.424 202.27 56.328L199.39 36.744C197.214 21.704 194.302 14.184 190.654 14.184C189.374 14.184 188.286 14.856 187.39 16.2C186.494 17.48 186.046 19.08 186.046 21C186.046 23.432 186.622 25.768 187.774 28.008C188.99 30.184 190.302 32.552 191.71 35.112C193.182 37.672 194.494 40.552 195.646 43.752C196.862 46.888 197.47 50.6 197.47 54.888C197.47 59.688 196.798 63.24 195.454 65.544C194.11 67.848 191.902 69 188.83 69H170.398V68.808C171.678 67.464 172.83 65.768 173.854 63.72C174.878 61.672 175.742 59.464 176.446 57.096C177.214 54.664 177.79 52.168 178.174 49.608C178.622 46.984 178.846 44.456 178.846 42.024C178.846 39.4 178.654 36.904 178.27 34.536C177.886 32.168 177.47 29.864 177.022 27.624C176.574 25.384 176.158 23.176 175.773 21C175.39 18.76 175.198 16.488 175.198 14.184C175.198 12.392 175.518 10.696 176.158 9.096C176.798 7.496 177.694 6.12 178.846 4.96799C179.998 3.81599 181.342 2.91999 182.878 2.27999C184.414 1.576 186.046 1.224 187.774 1.224C191.422 1.224 194.59 2.92 197.278 6.31199C199.966 9.704 201.854 14.984 202.942 22.152C203.07 23.112 203.23 24.424 203.422 26.088C203.678 27.688 203.934 29.448 204.19 31.368C204.51 33.288 204.83 35.272 205.15 37.32C205.47 39.304 205.758 41.224 206.014 43.08C206.334 44.872 206.59 46.504 206.782 47.976C207.038 49.384 207.23 50.44 207.358 51.144C207.806 54.216 208.446 56.712 209.278 58.632C210.174 60.552 211.102 61.512 212.062 61.512C212.766 61.512 213.246 61.096 213.502 60.264C213.822 59.368 213.982 57.96 213.982 56.04C213.982 53.736 213.694 51.144 213.118 48.264C212.542 45.32 211.902 42.216 211.198 38.952C210.558 35.624 209.95 32.168 209.374 28.584C208.862 25 208.606 21.352 208.606 17.64C208.606 16.104 208.67 14.44 208.798 12.648C208.926 10.792 209.246 9.064 209.758 7.464C210.27 5.864 211.006 4.52 211.966 3.432C212.99 2.344 214.366 1.8 216.094 1.8H234.526V1.992C233.246 3.336 232.158 5.032 231.262 7.08C230.366 9.128 229.662 11.368 229.15 13.8C228.638 16.168 228.254 18.664 227.998 21.288C227.806 23.848 227.71 26.344 227.71 28.776C227.71 31.4 227.806 33.864 227.998 36.168C228.19 38.408 228.382 40.584 228.574 42.696C228.83 44.808 229.054 46.92 229.246 49.032C229.438 51.144 229.534 53.352 229.534 55.656C229.534 57.576 229.182 59.4 228.478 61.128C227.838 62.792 226.91 64.264 225.694 65.544C224.542 66.76 223.166 67.752 221.566 68.52C219.966 69.224 218.238 69.576 216.382 69.576Z" fill="#F24405" fill-opacity="0.5"/>
</svg>
